<?xml version="1.0" encoding="UTF-8" standalone="no"?>
<!-- Created with Inkscape (http://www.inkscape.org/) -->

<svg
   width="48mm"
   height="48mm"
   viewBox="0 0 48 48"
   version="1.1"
   id="svg5"
   xml:space="preserve"
   inkscape:version="1.2.2 (732a01da63, 2022-12-09)"
   sodipodi:docname="nyan.svg"
   inkscape:export-filename="nyan - stencil 4.svg"
   inkscape:export-xdpi="96"
   inkscape:export-ydpi="96"
   xmlns:inkscape="http://www.inkscape.org/namespaces/inkscape"
   xmlns:sodipodi="http://sodipodi.sourceforge.net/DTD/sodipodi-0.dtd"
   xmlns="http://www.w3.org/2000/svg"
   xmlns:svg="http://www.w3.org/2000/svg"><sodipodi:namedview
     id="namedview7"
     pagecolor="#ffffff"
     bordercolor="#000000"
     borderopacity="0.25"
     inkscape:showpageshadow="2"
     inkscape:pageopacity="0.0"
     inkscape:pagecheckerboard="0"
     inkscape:deskcolor="#d1d1d1"
     inkscape:document-units="mm"
     showgrid="false"
     inkscape:zoom="7.319248"
     inkscape:cx="7.172868"
     inkscape:cy="85.93779"
     inkscape:window-width="3440"
     inkscape:window-height="1369"
     inkscape:window-x="2552"
     inkscape:window-y="-8"
     inkscape:window-maximized="1"
     inkscape:current-layer="layer13" /><defs
     id="defs2"><inkscape:path-effect
       effect="offset"
       id="path-effect1225"
       is_visible="true"
       lpeversion="1.2"
       linejoin_type="miter"
       unit="mm"
       offset="0.35"
       miter_limit="4"
       attempt_force_join="false"
       update_on_knot_move="true" /></defs><g
     inkscape:groupmode="layer"
     id="layer5"
     inkscape:label="Final Stencils"
     style="display:inline"><path
       id="path3588-8-9"
       style="color:#000000;display:inline;fill:#000000;stroke-width:0.830001;stroke-linecap:round;stroke-linejoin:round;-inkscape-stroke:none"
       inkscape:label="Stencil 4"
       d="m 15.191406,21.1875 c -0.152625,0.002 -0.305156,0.02147 -0.453125,0.05664 -0.580825,0.138057 -1.09597,0.51105 -1.398437,1.039062 -0.296337,0.517314 -0.441737,1.201092 -0.164063,1.84375 0.192187,0.444801 0.266819,0.642882 0.496094,0.947266 0.317763,0.421855 0.680146,0.709544 1.054687,1 0.396109,0.307181 0.844067,0.571635 1.177735,0.763672 0,0 0.725285,0.431074 1.867187,0.613281 l 2.253907,0.484375 v -4.785156 l -2.308594,-0.496094 c -0.08927,-0.07286 -0.214988,-0.174735 -0.316406,-0.259766 -0.273823,-0.229576 -0.634414,-0.625783 -1.039063,-0.876953 -0.340217,-0.211172 -0.724585,-0.323236 -1.107422,-0.330078 -0.02328,-4.18e-4 -0.04248,-2.7e-4 -0.0625,0 z m 28.658203,3.162109 c -0.422909,0.0011 -0.76258,0.33986 -0.763671,0.763672 v 0.390625 L 42.798828,25.5 c -0.424059,-0.0047 -0.768665,0.331297 -0.773437,0.755859 -0.0047,0.424246 0.33118,0.768136 0.755859,0.773438 l 1.060547,0.01172 c 0.426836,0.0047 0.772316,-0.335714 0.773437,-0.763672 v -1.164063 c -0.0011,-0.4242 -0.341195,-0.76469 -0.765625,-0.763672 z M 36.607422,24.375 c -0.423999,0.0053 -0.761134,0.349314 -0.75586,0.773438 L 35.855469,25.5 h -0.300781 c -0.422908,0.0011 -0.762581,0.3407 -0.763672,0.763672 -0.001,0.424351 0.338537,0.764528 0.763672,0.765625 h 1.074218 c 0.428484,0.001 0.770345,-0.344878 0.765625,-0.773438 l -0.01367,-1.125 C 37.376097,24.70649 37.031852,24.369728 36.607422,24.375 Z m 6.185547,3.029297 c -0.424368,0.0048 -0.761126,0.34966 -0.75586,0.773437 l 0.0039,0.382813 -1.601563,0.0059 0.0078,-0.339844 c 0.01119,-0.424265 -0.320357,-0.774661 -0.746094,-0.785156 -0.423033,-0.0091 -0.770229,0.322632 -0.78125,0.746094 l -0.0098,0.380859 -1.5625,0.0059 0.002,-0.324219 c 0.0031,-0.425789 -0.338061,-0.768443 -0.763671,-0.769531 -0.422852,-0.001 -0.762954,0.336906 -0.765626,0.759765 l -0.0078,1.095704 c -9.77e-4,0.425638 0.340133,0.766603 0.765625,0.765624 l 6.238281,-0.01172 c 0.426866,-0.0011 0.768909,-0.346401 0.763672,-0.773438 l -0.01367,-1.15625 c -0.0048,-0.424367 -0.349443,-0.761126 -0.773437,-0.755859 z m -22.384766,2.162109 -0.261719,0.0078 c -0.195295,0.0038 -0.382296,0.08156 -0.521484,0.21875 L 18.587891,30.8125 c -0.146546,0.143112 -0.229294,0.338188 -0.230469,0.542969 l -0.0078,2.095703 c -0.0032,0.418865 0.326221,0.759004 0.746094,0.769531 l 1.988281,0.04492 c 0.207305,0.0049 0.407275,-0.07393 0.554688,-0.21875 l 1.091797,-1.076172 c 0.149279,-0.145769 0.232413,-0.345755 0.230469,-0.556641 l -0.01758,-1.121093 -0.277343,-0.05664 C 21.758523,31.055324 20.984688,30.500426 20.513672,29.738281 Z M 23.457031,31.300781 23.4375,32.375 c -0.0042,0.216563 0.08371,0.4253 0.242188,0.574219 l 1.103515,1.029297 c 0.142204,0.132723 0.328123,0.205078 0.521485,0.205078 h 2.023437 c 0.421507,9.97e-4 0.760809,-0.333288 0.765625,-0.75586 l 0.01953,-2.126953 z m 10.324219,0 -0.01172,1.085938 c -0.0039,0.200695 0.07019,0.394008 0.208985,0.541015 l 1.023437,1.070313 c 0.14561,0.153286 0.347627,0.239249 0.558594,0.238281 l 2.044922,-0.01172 c 0.424444,-0.0027 0.762859,-0.345731 0.759765,-0.769531 l -0.01172,-1.976562 h -3.8125 c -0.0168,7e-6 -0.0332,-0.0079 -0.04492,-0.01953 -0.09911,-0.0992 -0.04916,-0.04727 -0.05859,-0.05664 l -0.101562,-0.101563 z m 5.115234,0.177735 0.0098,0.943359 c 0.0028,0.193257 0.0778,0.378554 0.210938,0.517578 l 1.009765,1.058594 c 0.14561,0.153286 0.347663,0.239249 0.558594,0.238281 l 2.080078,-0.01172 c 0.42704,-0.0011 0.768383,-0.345834 0.763672,-0.773437 l -0.02539,-1.972656 z"
       inkscape:path-effect="#path-effect1225"
       inkscape:original-d="m 15.194421,21.537703 c -0.126726,0.0017 -0.252979,0.01722 -0.376204,0.04651 -0.489366,0.116318 -0.922343,0.430641 -1.175639,0.872815 -0.255313,0.445699 -0.36896,1.012125 -0.144694,1.531173 0.194611,0.450411 0.255273,0.612112 0.453202,0.874882 0.287761,0.382025 0.617616,0.644917 0.990121,0.933793 0.378519,0.293541 0.806097,0.548079 1.136881,0.738456 0.700511,0.403164 1.748214,0.569991 1.748214,0.569991 l 1.8495,0.395842 v -4.067452 l -2.115117,-0.45527 c -0.07547,-0.06167 -0.261001,-0.212305 -0.384989,-0.316259 -0.290195,-0.243303 -0.626688,-0.615813 -0.999939,-0.847494 -0.287347,-0.178356 -0.608177,-0.271287 -0.927075,-0.276986 -0.01812,-3.25e-4 -0.03616,-2.44e-4 -0.05426,0 z m 28.655099,3.161565 a 0.4150005,0.4150005 0 0 0 -0.413928,0.413928 v 0.74414 l -0.640788,-0.0078 a 0.4150005,0.4150005 0 0 0 -0.419613,0.410311 0.4150005,0.4150005 0 0 0 0.409794,0.419612 l 1.060918,0.01189 a 0.415042,0.415042 0 0 0 0.419612,-0.413928 v -1.16427 A 0.4150005,0.4150005 0 0 0 43.84952,24.699268 Z m -7.238318,0.02532 a 0.4150005,0.4150005 0 0 0 -0.409794,0.420129 l 0.0078,0.704867 h -0.65474 a 0.4150005,0.4150005 0 0 0 -0.413928,0.413928 0.4150005,0.4150005 0 0 0 0.413928,0.415995 h 1.074353 a 0.415042,0.415042 0 0 0 0.415995,-0.419612 L 37.031331,25.1349 a 0.4150005,0.4150005 0 0 0 -0.420129,-0.410312 z m 6.185669,3.029272 a 0.4150005,0.4150005 0 0 0 -0.410311,0.42013 l 0.0078,0.736389 -2.314071,0.0057 0.01757,-0.699182 a 0.4150005,0.4150005 0 0 0 -0.404627,-0.425813 0.4150005,0.4150005 0 0 0 -0.423746,0.404109 l -0.01757,0.722954 -2.255677,0.0057 0.0036,-0.675928 a 0.4150005,0.4150005 0 0 0 -0.413928,-0.418062 0.4150005,0.4150005 0 0 0 -0.415996,0.412378 l -0.0078,1.09399 a 0.415042,0.415042 0 0 0 0.415995,0.415995 l 6.238379,-0.01189 A 0.415042,0.415042 0 0 0 43.230417,29.3202 L 43.217,28.164172 a 0.4150005,0.4150005 0 0 0 -0.420129,-0.410311 z m -22.580534,2.168344 -0.06201,0.0015 a 0.415042,0.415042 0 0 0 -0.283186,0.119372 l -1.039214,1.019576 a 0.415042,0.415042 0 0 0 -0.125057,0.294556 l -0.0078,2.095996 a 0.415042,0.415042 0 0 0 0.404626,0.418063 l 1.987993,0.04444 a 0.415042,0.415042 0 0 0 0.300757,-0.118856 l 1.09399,-1.07642 a 0.415042,0.415042 0 0 0 0.125057,-0.300756 l -0.01395,-0.840259 c -1.004472,-0.200347 -1.860361,-0.81442 -2.38125,-1.657263 z m 3.583761,1.728059 -0.01292,0.732772 a 0.415042,0.415042 0 0 0 0.130741,0.310576 l 1.103809,1.028877 a 0.415042,0.415042 0 0 0 0.283186,0.111622 h 2.023133 a 0.415042,0.415042 0 0 0 0.415996,-0.41031 l 0.0155,-1.773536 z m 10.327535,0 -0.0083,0.742074 a 0.415042,0.415042 0 0 0 0.113172,0.293005 l 1.023193,1.072286 a 0.415042,0.415042 0 0 0 0.302824,0.129191 l 2.044836,-0.01188 a 0.415042,0.415042 0 0 0 0.412378,-0.418062 l -0.01085,-1.628842 H 34.541015 A 0.415042,0.415042 0 0 1 34.24801,31.707113 c 0,0 -0.05026,-0.04979 -0.05736,-0.05684 z m 5.121651,0.177767 0.0067,0.588078 a 0.415042,0.415042 0 0 0 0.115238,0.28112 l 1.009758,1.0604 a 0.415042,0.415042 0 0 0 0.302824,0.129191 l 2.082043,-0.01188 a 0.415042,0.415042 0 0 0 0.413928,-0.419613 l -0.02119,-1.627291 z" /></g></svg>
