<?xml version="1.0" encoding="UTF-8" standalone="no"?>
<!-- Created with Inkscape (http://www.inkscape.org/) -->

<svg
   width="48mm"
   height="48mm"
   viewBox="0 0 48 48"
   version="1.1"
   id="svg5"
   xml:space="preserve"
   inkscape:version="1.2.2 (732a01da63, 2022-12-09)"
   sodipodi:docname="nyan.svg"
   inkscape:export-filename="nyan - stencil 1.svg"
   inkscape:export-xdpi="96"
   inkscape:export-ydpi="96"
   xmlns:inkscape="http://www.inkscape.org/namespaces/inkscape"
   xmlns:sodipodi="http://sodipodi.sourceforge.net/DTD/sodipodi-0.dtd"
   xmlns="http://www.w3.org/2000/svg"
   xmlns:svg="http://www.w3.org/2000/svg"><sodipodi:namedview
     id="namedview7"
     pagecolor="#ffffff"
     bordercolor="#000000"
     borderopacity="0.25"
     inkscape:showpageshadow="2"
     inkscape:pageopacity="0.0"
     inkscape:pagecheckerboard="0"
     inkscape:deskcolor="#d1d1d1"
     inkscape:document-units="mm"
     showgrid="false"
     inkscape:zoom="7.319248"
     inkscape:cx="-1.4345736"
     inkscape:cy="85.93779"
     inkscape:window-width="3440"
     inkscape:window-height="1369"
     inkscape:window-x="2552"
     inkscape:window-y="-8"
     inkscape:window-maximized="1"
     inkscape:current-layer="layer7" /><defs
     id="defs2"><inkscape:path-effect
       effect="offset"
       id="path-effect1225"
       is_visible="true"
       lpeversion="1.2"
       linejoin_type="miter"
       unit="mm"
       offset="0.35"
       miter_limit="4"
       attempt_force_join="false"
       update_on_knot_move="true" /><inkscape:path-effect
       effect="offset"
       id="path-effect1188"
       is_visible="true"
       lpeversion="1.2"
       linejoin_type="miter"
       unit="mm"
       offset="0.35"
       miter_limit="4"
       attempt_force_join="false"
       update_on_knot_move="true" /><inkscape:path-effect
       effect="offset"
       id="path-effect1186"
       is_visible="true"
       lpeversion="1.2"
       linejoin_type="miter"
       unit="mm"
       offset="0"
       miter_limit="4"
       attempt_force_join="false"
       update_on_knot_move="true" /><inkscape:path-effect
       effect="offset"
       id="path-effect1161"
       is_visible="true"
       lpeversion="1.2"
       linejoin_type="miter"
       unit="mm"
       offset="0.35"
       miter_limit="4"
       attempt_force_join="false"
       update_on_knot_move="true" /><inkscape:path-effect
       effect="offset"
       id="path-effect1116"
       is_visible="true"
       lpeversion="1.2"
       linejoin_type="miter"
       unit="mm"
       offset="0.35"
       miter_limit="4"
       attempt_force_join="false"
       update_on_knot_move="true" /><inkscape:path-effect
       effect="offset"
       id="path-effect1113"
       is_visible="true"
       lpeversion="1.2"
       linejoin_type="miter"
       unit="mm"
       offset="0.35000001"
       miter_limit="4"
       attempt_force_join="false"
       update_on_knot_move="true" /></defs><g
     inkscape:groupmode="layer"
     id="layer7"
     inkscape:label="CombinedImg"
     style="display:inline"><g
       inkscape:groupmode="layer"
       id="layer2"
       inkscape:label="Color Bar"
       style="display:inline"><path
         style="opacity:1;fill:#ff0000;stroke-width:0.329999;stroke-linecap:round;stroke-linejoin:round;stroke-dasharray:1.32, 1.32"
         d="m 0.01278059,13.368501 c 0,0 3.45420731,0.992624 5.24004331,1.060789 2.7932693,0.106619 5.5250331,-1.078823 8.3201661,-1.048009 2.32126,0.02559 4.573038,0.859885 6.88874,1.022448 1.776437,0.124707 5.342288,-0.03834 5.342288,-0.03834 l -0.01278,3.131245 c 0,0 -3.472555,0.11559 -5.201702,-0.01278 -2.340248,-0.173737 -4.618914,-0.993397 -6.965423,-1.02245 -2.823636,-0.03496 -5.5877633,1.12831 -8.4096309,1.022448 C 3.4436442,17.417419 0,16.448624 0,16.448624 Z M 13.483526,14.812708 m -2.262165,1.546452"
         id="path1684"
         sodipodi:nodetypes="csssccssscc"
         inkscape:label="Red" /><path
         style="fill:#d45500;stroke-width:0.329999;stroke-linecap:round;stroke-linejoin:round;stroke-dasharray:1.32, 1.32"
         d="m 0.00639061,16.41834 c 0,0 3.45420729,0.992624 5.24004329,1.060789 2.7932693,0.106619 5.5250331,-1.078823 8.3201661,-1.048009 2.32126,0.02559 4.573038,0.859885 6.88874,1.022448 1.776437,0.124707 5.342288,-0.03834 5.342288,-0.03834 l -0.01278,3.131245 c 0,0 -3.472555,0.11559 -5.201702,-0.01278 -2.340248,-0.173737 -4.618914,-0.993397 -6.965423,-1.02245 -2.823636,-0.03496 -5.5877633,1.12831 -8.4096309,1.022448 -1.7708379,-0.06643 -5.21448209,-1.035228 -5.21448209,-1.035228 z M 13.477136,17.862547 m -2.262165,1.546452"
         id="path1684-6"
         sodipodi:nodetypes="csssccssscc"
         inkscape:label="Orange" /><path
         style="fill:#ffff00;stroke-width:0.329999;stroke-linecap:round;stroke-linejoin:round;stroke-dasharray:1.32, 1.32"
         d="m 0.03195175,19.447341 c 0,0 3.45420695,0.992624 5.24004295,1.060789 2.7932693,0.106619 5.5250333,-1.078823 8.3201663,-1.048009 2.32126,0.02559 4.573038,0.859885 6.88874,1.022448 1.776437,0.124707 5.342288,-0.03834 5.342288,-0.03834 l -0.01278,3.131245 c 0,0 -3.472555,0.11559 -5.201702,-0.01278 -2.340248,-0.173737 -4.618914,-0.993397 -6.965423,-1.02245 -2.823636,-0.03496 -5.5877635,1.12831 -8.4096311,1.022448 C 3.462815,23.496262 0.01917075,22.527464 0.01917075,22.527464 Z M 13.502697,20.891548 M 11.240532,22.438"
         id="path1684-6-7"
         sodipodi:nodetypes="csssccssscc"
         inkscape:label="Yellow" /><path
         style="fill:#00ff00;stroke-width:0.329999;stroke-linecap:round;stroke-linejoin:round;stroke-dasharray:1.32, 1.32"
         d="m 0.04473263,22.501902 c 0,0 3.45420697,0.992624 5.24004297,1.060789 2.7932693,0.106619 5.5250334,-1.078823 8.3201664,-1.048009 2.32126,0.02559 4.573038,0.859885 6.88874,1.022448 1.776437,0.124707 5.342288,-0.03834 5.342288,-0.03834 l -0.01278,3.131245 c 0,0 -3.472555,0.11559 -5.201702,-0.01278 -2.340248,-0.173737 -4.618914,-0.993397 -6.965423,-1.02245 -2.823636,-0.03496 -5.5877636,1.12831 -8.4096312,1.022448 C 3.4755959,26.550823 0.03195163,25.582025 0.03195163,25.582025 Z M 13.515478,23.946109 m -2.262165,1.546452"
         id="path1684-6-7-3"
         sodipodi:nodetypes="csssccssscc"
         inkscape:label="Green" /><path
         style="fill:#0000ff;stroke-width:0.329999;stroke-linecap:round;stroke-linejoin:round;stroke-dasharray:1.32, 1.32"
         d="m 0.01595685,25.547934 c 0,0 3.45420705,0.992624 5.24004305,1.060789 2.7932693,0.106618 5.5250331,-1.078823 8.3201671,-1.048009 2.32126,0.02559 4.573038,0.859884 6.88874,1.022447 1.776437,0.124707 5.342288,-0.03834 5.342288,-0.03834 l -0.01278,3.131245 c 0,0 -3.472555,0.11559 -5.201702,-0.01278 -2.340248,-0.173738 -4.618914,-0.993398 -6.965423,-1.02245 -2.823637,-0.03496 -5.5877643,1.12831 -8.4096319,1.022447 C 3.4468202,29.596853 0.00317585,28.628056 0.00317585,28.628056 Z M 13.486703,26.992141 m -2.262166,1.546451"
         id="path1684-6-7-3-5"
         sodipodi:nodetypes="csssccssscc"
         inkscape:label="Blue" /><path
         style="fill:#800080;stroke-width:0.329999;stroke-linecap:round;stroke-linejoin:round;stroke-dasharray:1.32, 1.32"
         d="m 0.03195158,28.585465 c 0,0 3.45420712,0.992624 5.24004312,1.060789 2.7932693,0.106618 5.5250333,-1.078823 8.3201673,-1.048009 2.32126,0.02559 4.573038,0.859884 6.88874,1.022447 1.776437,0.124707 5.342288,-0.03834 5.342288,-0.03834 l 0.0053,3.31199 c 0,0 -2.077316,-1.703269 -2.944266,-1.705402 -0.866951,-0.0021 -0.648936,1.832148 -2.257436,1.692602 -1.6085,-0.139546 -4.636988,-1.174143 -6.983497,-1.203195 -2.823637,-0.03496 -5.5877645,1.12831 -8.4096321,1.022447 C 3.462815,32.634384 0.01917058,31.665587 0.01917058,31.665587 Z"
         id="path1684-6-7-3-5-0"
         sodipodi:nodetypes="csssccscsscc"
         inkscape:label="Purple" /></g><g
       inkscape:groupmode="layer"
       id="layer3"
       inkscape:label="PopTart"
       style="display:inline"><path
         style="color:#000000;display:inline;fill:#fff6d5;stroke-width:0.83;stroke-linecap:round;stroke-linejoin:round;-inkscape-stroke:none"
         d="m 23.311803,13.956409 h 14.058651 c 1.784273,0 3.22071,1.436437 3.22071,3.22071 v 10.837946 c 0,1.784274 -1.436437,3.22071 -3.22071,3.22071 H 23.311803 c -1.784273,0 -3.22071,-1.436436 -3.22071,-3.22071 V 17.177119 c 0,-1.784273 1.436437,-3.22071 3.22071,-3.22071 z"
         id="path3578"
         inkscape:label="Poptart Fill" /><path
         style="color:#000000;display:inline;fill:#000000;stroke:none;stroke-linecap:round;stroke-linejoin:round;-inkscape-stroke:none"
         d="m 23.3125,13.541016 c -2.007003,0 -3.636719,1.629716 -3.636719,3.636718 v 10.837891 c 0,2.007004 1.629716,3.634766 3.636719,3.634766 h 14.058594 c 2.007002,0 3.634765,-1.627762 3.634765,-3.634766 V 17.177734 c 0,-2.007002 -1.627763,-3.636718 -3.634765,-3.636718 z m 0,0.830078 h 14.058594 c 1.561539,0 2.804687,1.245101 2.804687,2.80664 v 10.837891 c 0,1.561541 -1.243147,2.804688 -2.804687,2.804687 H 23.3125 c -1.56154,0 -2.806641,-1.243146 -2.806641,-2.804687 V 17.177734 c 0,-1.561539 1.245101,-2.80664 2.806641,-2.80664 z"
         id="path3580"
         inkscape:label="Outline Path" /><path
         id="rect1993-9"
         style="display:inline;fill:#e9afaf;stroke-width:0.664447;stroke-linecap:round;stroke-linejoin:round"
         inkscape:label="Icing Fill"
         d="m 24.636918,15.750399 h 11.543577 c 1.409429,0 2.544095,1.134666 2.544095,2.544095 v 8.561084 c 0,1.409429 -1.134666,2.544095 -2.544095,2.544095 H 24.636918 c -1.409428,0 -2.544095,-1.134666 -2.544095,-2.544095 v -8.561084 c 0,-1.409429 1.134667,-2.544095 2.544095,-2.544095 z" /></g><g
       inkscape:groupmode="layer"
       id="layer4"
       inkscape:label="Cat Extremities"
       style="display:inline"><g
         id="path2827"
         inkscape:label="Tail"><path
           style="color:#000000;display:inline;fill:#808080;stroke-width:0.830001;stroke-linecap:round;stroke-linejoin:round;-inkscape-stroke:none"
           d="m 20.093286,23.949016 -0.01807,3.213224 -2.17361,-0.464643 c 0,0 -1.045687,-0.19291 -1.617356,-0.521921 -0.32501,-0.187052 -0.737857,-0.435081 -1.088276,-0.706829 -0.369352,-0.286431 -0.662393,-0.522215 -0.913358,-0.855393 -0.178049,-0.236374 -0.207201,-0.333826 -0.404437,-0.790314 -0.145317,-0.336326 -0.06843,-0.822951 0.124973,-1.160574 0.188021,-0.328228 0.543794,-0.588083 0.911807,-0.675556 0.342853,-0.08149 0.712836,-0.02436 1.041807,0.179832 0.281539,0.174753 0.632248,0.544609 0.951966,0.812665 0.154166,0.129255 0.465926,0.383638 0.465926,0.383638 z"
           id="path3588"
           inkscape:label="fill" /><path
           style="color:#000000;display:inline;fill:#000000;stroke:none;stroke-linecap:round;stroke-linejoin:round;-inkscape-stroke:none"
           d="m 14.818359,21.583984 c -0.489366,0.116318 -0.922485,0.43087 -1.175781,0.873047 -0.255313,0.445699 -0.368797,1.012202 -0.144531,1.53125 0.194611,0.450414 0.255193,0.61223 0.453125,0.875 0.287761,0.382028 0.617729,0.644718 0.990234,0.933594 0.378522,0.293541 0.805932,0.547904 1.136719,0.738281 0.700511,0.403164 1.748047,0.570313 1.748047,0.570313 l 2.162109,0.46289 a 0.415042,0.415042 0 0 0 0.501953,-0.404297 l 0.01758,-3.21289 a 0.415042,0.415042 0 0 0 -0.326171,-0.408203 l -2.621094,-0.564453 c -0.07547,-0.06167 -0.260778,-0.212453 -0.384766,-0.316407 -0.290195,-0.243303 -0.626746,-0.615975 -1,-0.847656 -0.417959,-0.259427 -0.906768,-0.337581 -1.357422,-0.230469 z m 0.19336,0.806641 c 0.235052,-0.05587 0.48658,-0.02005 0.726562,0.128906 0.189824,0.117825 0.555057,0.484536 0.904297,0.777344 0.15982,0.133995 0.46875,0.388672 0.46875,0.388672 a 0.415042,0.415042 0 0 0 0.175781,0.08398 l 2.388672,0.515625 -0.01367,2.363281 -1.673828,-0.357421 a 0.415042,0.415042 0 0 0 -0.01172,-0.002 c 0,0 -1.041549,-0.217798 -1.484375,-0.472656 -0.319232,-0.183727 -0.718699,-0.425827 -1.041015,-0.675781 -0.366198,-0.283985 -0.623722,-0.493016 -0.837891,-0.777344 -0.158166,-0.209977 -0.153655,-0.242517 -0.353515,-0.705078 -0.06637,-0.153603 -0.02798,-0.559516 0.103515,-0.789062 0.122746,-0.214278 0.401779,-0.419888 0.648438,-0.478516 z"
           id="path3590"
           inkscape:label="stroke" /></g><g
         id="path2886"
         inkscape:label="Leg, back right"><path
           style="color:#000000;fill:#808080;stroke-width:0.830001;stroke-linecap:round;stroke-linejoin:round;-inkscape-stroke:none"
           d="m 20.162092,30.338029 0.903724,-0.01807 1.111581,0.921797 0.01808,1.18388 -1.093507,1.075433 -1.988193,-0.04519 0.009,-2.096643 z"
           id="path3594"
           inkscape:label="fill" /><path
           style="color:#000000;fill:#000000;stroke:none;stroke-linecap:round;stroke-linejoin:round;-inkscape-stroke:none"
           d="m 21.056641,29.904297 -0.902344,0.01953 a 0.415042,0.415042 0 0 0 -0.283203,0.119141 L 18.832031,31.0625 a 0.415042,0.415042 0 0 0 -0.125,0.294922 l -0.0078,2.095703 a 0.415042,0.415042 0 0 0 0.404297,0.417969 l 1.988281,0.04492 a 0.415042,0.415042 0 0 0 0.300781,-0.119141 l 1.09375,-1.076172 a 0.415042,0.415042 0 0 0 0.125,-0.300781 L 22.59181,31.236326 A 0.415042,0.415042 0 0 0 22.441406,30.921875 L 21.330078,30 a 0.415042,0.415042 0 0 0 -0.273437,-0.0957 z m -0.136719,0.833984 0.845703,0.701172 0.01172,0.814453 -0.841797,0.828125 -1.404297,-0.03125 0.0059,-1.517578 L 20.335937,30.75 Z"
           id="path3596"
           inkscape:label="stroke" /></g><g
         id="path2888"
         inkscape:label="Leg, back left"><path
           style="color:#000000;fill:#808080;stroke-width:0.830001;stroke-linecap:round;stroke-linejoin:round;-inkscape-stroke:none"
           d="m 24.219815,31.377313 -0.01807,1.012171 1.102544,1.030245 h 2.024342 l 0.01807,-2.042416 z"
           id="path3600"
           inkscape:label="fill" /><path
           style="color:#000000;fill:#000000;stroke:none;stroke-linecap:round;stroke-linejoin:round;-inkscape-stroke:none"
           d="m 24.220703,30.962891 a 0.415042,0.415042 0 0 0 -0.416016,0.40625 l -0.01758,1.013671 a 0.415042,0.415042 0 0 0 0.13086,0.310547 l 1.103515,1.029297 a 0.415042,0.415042 0 0 0 0.283203,0.111328 h 2.023438 a 0.415042,0.415042 0 0 0 0.416016,-0.410156 l 0.01758,-2.042969 a 0.415042,0.415042 0 0 0 -0.414063,-0.417968 z m 0.40625,0.830078 h 2.300781 l -0.0098,1.210937 H 25.46875 l -0.849609,-0.791015 z"
           id="path3602"
           inkscape:label="stroke" /></g><g
         id="path2890"
         inkscape:label="Leg, front right"><path
           style="color:#000000;fill:#808080;stroke-width:0.830001;stroke-linecap:round;stroke-linejoin:round;-inkscape-stroke:none"
           d="m 34.545944,31.389137 -0.01278,1.009669 1.022448,1.073568 2.044896,-0.01278 -0.01278,-2.108798 z"
           id="path3606"
           inkscape:label="fill" /><path
           style="color:#000000;fill:#000000;stroke:none;stroke-linecap:round;stroke-linejoin:round;-inkscape-stroke:none"
           d="m 37.582031,30.935547 -3.041015,0.03906 a 0.415042,0.415042 0 0 0 -0.410157,0.410157 l -0.01172,1.007812 a 0.415042,0.415042 0 0 0 0.113281,0.292969 l 1.023437,1.072265 a 0.415042,0.415042 0 0 0 0.302735,0.128907 L 37.603516,33.875 a 0.415042,0.415042 0 0 0 0.412109,-0.417969 l -0.01367,-2.109375 a 0.415042,0.415042 0 0 0 -0.419922,-0.412109 z m -0.408203,0.835937 0.0098,1.275391 -1.451172,0.0098 -0.78125,-0.822266 0.0059,-0.435547 z"
           id="path3608"
           inkscape:label="stroke" /></g><g
         id="path2892"
         inkscape:label="Leg, front left"><path
           style="color:#000000;fill:#808080;stroke-width:0.830001;stroke-linecap:round;stroke-linejoin:round;-inkscape-stroke:none"
           d="m 39.658181,31.363576 0.01278,1.048009 1.009666,1.060789 2.083237,-0.01278 -0.02556,-2.096018 z"
           id="path3612"
           inkscape:label="fill" /><path
           style="color:#000000;fill:#000000;stroke:none;stroke-linecap:round;stroke-linejoin:round;-inkscape-stroke:none"
           d="m 39.658203,30.949219 a 0.415042,0.415042 0 0 0 -0.414062,0.419922 l 0.01172,1.046875 a 0.415042,0.415042 0 0 0 0.115235,0.28125 l 1.009765,1.060546 a 0.415042,0.415042 0 0 0 0.302735,0.128907 L 42.765625,33.875 a 0.415042,0.415042 0 0 0 0.414062,-0.419922 l -0.02734,-2.095703 a 0.415042,0.415042 0 0 0 -0.414063,-0.410156 z m 0.419922,0.830078 h 2.25 l 0.01563,1.267578 -1.486328,0.0098 -0.773438,-0.8125 z"
           id="path3614"
           inkscape:label="stroke" /></g><g
         id="path2895"
         inkscape:label="Head"
         style="display:inline"><path
           style="color:#000000;display:inline;fill:#808080;stroke-width:0.830001;stroke-linecap:round;stroke-linejoin:round;-inkscape-stroke:none"
           d="m 31.431537,24.219815 1.030245,-1.08447 c 0,0 -0.396135,-2.12815 0,-3.072663 0.186198,-0.443955 1.030245,-1.012171 1.030245,-1.012171 l 1.120619,-0.01807 0.939874,1.048321 1.030245,1.04832 1.030245,1.012171 3.072665,-0.01807 1.066395,-1.030246 1.048319,-1.030246 1.066395,-1.04832 h 0.957947 c 0,0 0.875045,0.58805 1.066396,1.04832 0.388562,0.934637 -0.01807,3.036514 -0.01807,3.036514 l 0.994095,1.102544 c 0,0 0.530782,2.823427 0.01807,4.084835 -0.181276,0.445988 -0.676277,0.685367 -1.012172,1.030246 -0.338906,0.34797 -0.673238,0.700377 -1.012171,1.048321 -0.341867,0.350956 -1.030248,1.048319 -1.030248,1.048319 h -9.290283 c 0,0 -0.688301,-0.685366 -1.030245,-1.030245 -0.350956,-0.353969 -0.694219,-0.715574 -1.048321,-1.066395 -0.339011,-0.33587 -0.843693,-0.554852 -1.030245,-0.994096 -0.534632,-1.258812 0,-4.102919 0,-4.102919 z"
           id="path3620"
           inkscape:label="fill" /><path
           style="color:#000000;fill:#000000;stroke:none;stroke-linecap:round;stroke-linejoin:round;-inkscape-stroke:none"
           d="m 43.867187,18.599609 a 0.415042,0.415042 0 0 0 -0.291015,0.119141 l -1.066406,1.048828 -1.046875,1.027344 -0.945313,0.914062 -2.736328,0.01563 -0.904297,-0.888672 -1.021484,-1.039062 -0.933594,-1.041016 a 0.415042,0.415042 0 0 0 -0.316406,-0.138672 l -1.121094,0.01758 a 0.415042,0.415042 0 0 0 -0.224609,0.07227 c 0,0 -0.227256,0.151728 -0.480469,0.365235 -0.253213,0.213506 -0.545994,0.460083 -0.701172,0.830078 -0.260147,0.620273 -0.229131,1.407245 -0.177734,2.082031 0.04215,0.553396 0.100673,0.854429 0.126953,1.005859 l -0.896485,0.94336 a 0.415042,0.415042 0 0 0 -0.107422,0.208984 c 0,0 -0.138283,0.731695 -0.207031,1.625 -0.06875,0.893306 -0.09831,1.938071 0.232422,2.716797 0.272428,0.641441 0.864303,0.872542 1.121094,1.126953 0.348073,0.344848 0.68973,0.706212 1.044922,1.064453 0.344441,0.347398 1.033203,1.03125 1.033203,1.03125 a 0.415042,0.415042 0 0 0 0.292969,0.121094 h 9.289062 A 0.415042,0.415042 0 0 0 44.125,31.705078 c 0,0 0.688774,-0.697195 1.033203,-1.050781 0.34148,-0.350559 0.675346,-0.703459 1.011719,-1.048828 0.260678,-0.26765 0.838607,-0.519973 1.099609,-1.16211 0.315837,-0.777042 0.283429,-1.817229 0.212891,-2.705078 C 47.411884,24.850433 47.275391,24.125 47.275391,24.125 a 0.415042,0.415042 0 0 0 -0.09961,-0.201172 l -0.867187,-0.958984 c 0.02663,-0.147017 0.08735,-0.449917 0.132812,-1 0.05514,-0.667124 0.08834,-1.444021 -0.167969,-2.060547 -0.157706,-0.379343 -0.458976,-0.634869 -0.720703,-0.855469 -0.261727,-0.2206 -0.496093,-0.378906 -0.496093,-0.378906 a 0.415042,0.415042 0 0 0 -0.232422,-0.07031 z m 0.169922,0.830078 h 0.648438 c 0.06178,0.043 0.15867,0.106141 0.333984,0.253907 0.223633,0.188492 0.454637,0.458135 0.488281,0.539062 0.13225,0.31811 0.156505,1.056356 0.105469,1.673828 -0.05104,0.617473 -0.148437,1.123047 -0.148437,1.123047 a 0.415042,0.415042 0 0 0 0.09961,0.357422 l 0.908203,1.007813 c 0.01573,0.08599 0.119577,0.638743 0.181641,1.419921 0.06667,0.839216 0.04258,1.841808 -0.154297,2.326172 -0.101549,0.249839 -0.512717,0.474377 -0.923828,0.896485 -0.341438,0.35057 -0.675334,0.7035 -1.011719,1.048828 -0.299367,0.307326 -0.777793,0.789703 -0.908203,0.921875 h -8.943359 c -0.130442,-0.129943 -0.60873,-0.604206 -0.908204,-0.90625 -0.346719,-0.349696 -0.690651,-0.713519 -1.050781,-1.070313 -0.42123,-0.417327 -0.838777,-0.624282 -0.939453,-0.861328 -0.203897,-0.480084 -0.234832,-1.484676 -0.169922,-2.328125 0.06021,-0.782317 0.165156,-1.33353 0.181641,-1.423828 l 0.935547,-0.986328 a 0.415042,0.415042 0 0 0 0.107422,-0.363281 c 0,0 -0.09494,-0.511303 -0.142579,-1.136719 -0.04764,-0.625416 -0.0188,-1.37498 0.117188,-1.699219 0.03102,-0.07396 0.255343,-0.334035 0.470703,-0.515625 0.168209,-0.141832 0.260379,-0.202342 0.320313,-0.24414 l 0.794921,-0.01172 0.814454,0.90625 a 0.415042,0.415042 0 0 0 0.01172,0.01367 l 1.03125,1.048828 a 0.415042,0.415042 0 0 0 0.0039,0.0059 l 1.03125,1.011719 a 0.415042,0.415042 0 0 0 0.292968,0.119141 l 3.072266,-0.01758 a 0.415042,0.415042 0 0 0 0.287109,-0.117187 l 1.066407,-1.03125 a 0.415042,0.415042 0 0 0 0.002,-0.002 l 1.048828,-1.029297 z"
           id="path3622"
           inkscape:label="stroke" /></g><path
         style="color:#000000;display:inline;fill:#000000;stroke-linecap:round;stroke-linejoin:round;-inkscape-stroke:none"
         d="m 43.849609,24.699219 a 0.4150005,0.4150005 0 0 0 -0.414062,0.414062 v 0.744141 l -0.640625,-0.0078 A 0.4150005,0.4150005 0 0 0 42.375,26.259779 0.4150005,0.4150005 0 0 0 42.785156,26.6797 l 1.060547,0.01172 a 0.415042,0.415042 0 0 0 0.419922,-0.414062 v -1.164063 a 0.4150005,0.4150005 0 0 0 -0.416016,-0.414062 z m -7.238281,0.02539 a 0.4150005,0.4150005 0 0 0 -0.410156,0.419922 l 0.0078,0.705078 h -0.654297 a 0.4150005,0.4150005 0 0 0 -0.414062,0.414063 0.4150005,0.4150005 0 0 0 0.414062,0.416015 h 1.074219 a 0.415042,0.415042 0 0 0 0.416016,-0.419921 l -0.01367,-1.125 a 0.4150005,0.4150005 0 0 0 -0.419922,-0.410157 z m 6.185547,3.029297 a 0.4150005,0.4150005 0 0 0 -0.410156,0.419922 l 0.0078,0.736328 -2.314453,0.0059 0.01758,-0.699219 a 0.4150005,0.4150005 0 0 0 -0.404297,-0.425781 0.4150005,0.4150005 0 0 0 -0.423828,0.404296 l -0.01758,0.722657 -2.255859,0.0059 L 37,28.248047 a 0.4150005,0.4150005 0 0 0 -0.414063,-0.417969 0.4150005,0.4150005 0 0 0 -0.416015,0.412109 l -0.0078,1.09375 a 0.415042,0.415042 0 0 0 0.416016,0.416016 l 6.238281,-0.01172 a 0.415042,0.415042 0 0 0 0.414063,-0.419922 l -0.01367,-1.15625 A 0.4150005,0.4150005 0 0 0 42.79689,27.753905 Z"
         id="path2907"
         inkscape:label="Face" /></g></g><g
     inkscape:groupmode="layer"
     id="layer11"
     inkscape:label="Stencil 1 (pre-expand)"
     style="display:none"><path
       id="path1684-6-7-3-5-1-6"
       style="display:inline;fill:#0000ff;stroke-width:0.329999;stroke-linecap:round;stroke-linejoin:round;stroke-dasharray:1.32, 1.32"
       inkscape:label="Blue"
       d="m 0.01601969,25.547795 -0.0129191,3.080432 c 0,0 3.44383261,0.968649 5.21466881,1.035079 2.8218647,0.105863 5.5856716,-1.057637 8.4093056,-1.022677 2.162919,0.02678 4.2687,0.724246 6.417696,0.96945 -0.235988,-0.481412 -0.368969,-1.022036 -0.368969,-1.594218 v -0.514697 l -1.8495,-0.395842 c 0,0 -1.047703,-0.166827 -1.748214,-0.569991 -0.330785,-0.190377 -0.758361,-0.444915 -1.136881,-0.738456 -0.07003,-0.0543 -0.137108,-0.107283 -0.204122,-0.160714 -0.385461,-0.04269 -0.772438,-0.07116 -1.161169,-0.07545 C 10.780784,25.5299 8.0492764,26.71533 5.2560099,26.608712 3.4701757,26.540547 0.01601969,25.547795 0.01601969,25.547795 Z" /><path
       id="path1684-6-7-31-9"
       style="display:inline;fill:#ffff00;stroke-width:0.329999;stroke-linecap:round;stroke-linejoin:round;stroke-dasharray:1.32, 1.32"
       inkscape:label="Yellow"
       d="m 0.03203939,19.447392 -0.01291911,3.079915 c 0,0 3.44383262,0.969166 5.21466882,1.035596 2.8067082,0.105293 5.5559959,-1.044717 8.3638309,-1.022677 0.01454,-0.02819 0.02931,-0.05588 0.04496,-0.0832 0.253296,-0.442175 0.686273,-0.756497 1.175639,-0.872815 0.450654,-0.107112 0.939581,-0.02895 1.35754,0.230477 0.373252,0.231681 0.709744,0.604191 0.999939,0.847494 0.123988,0.103954 0.309519,0.254589 0.384989,0.316259 l 2.115117,0.45527 V 20.400305 C 17.64085,20.136298 15.64334,19.482926 13.591935,19.460311 10.796805,19.429497 8.0652961,20.614928 5.2720296,20.508309 3.4861954,20.440144 0.03203939,19.447392 0.03203939,19.447392 Z" /><path
       id="path1684-8-9"
       style="display:inline;fill:#ff0000;stroke-width:0.329999;stroke-linecap:round;stroke-linejoin:round;stroke-dasharray:1.32, 1.32"
       inkscape:label="Red"
       d="M 0.01291911,13.368693 0,16.448608 c 0,0 3.4438327,0.968646 5.2146688,1.035079 2.8218648,0.105862 5.5856722,-1.057119 8.4093062,-1.022159 2.040144,0.02526 4.029189,0.647567 6.051827,0.923974 v -0.207739 c 0,-1.09797 0.488463,-2.082553 1.258837,-2.749703 -0.166646,-0.0066 -0.327275,-0.01407 -0.472839,-0.02429 -2.3157,-0.162563 -4.567727,-0.997087 -6.888985,-1.022677 -2.79513,-0.03081 -5.5266392,1.154617 -8.3199057,1.047998 -1.7858342,-0.06817 -5.23999019,-1.0604 -5.23999019,-1.0604 z" /><path
       id="rect1993-9-7-4"
       style="display:inline;fill:#e9afaf;stroke-width:0.664447;stroke-linecap:round;stroke-linejoin:round"
       inkscape:label="Icing Fill"
       d="m 24.636918,15.750399 h 11.543577 c 1.409429,0 2.544095,1.134666 2.544095,2.544095 v 8.561084 c 0,1.409429 -1.134666,2.544095 -2.544095,2.544095 H 24.636918 c -1.409428,0 -2.544095,-1.134666 -2.544095,-2.544095 v -8.561084 c 0,-1.409429 1.134667,-2.544095 2.544095,-2.544095 z" /></g><g
     inkscape:groupmode="layer"
     id="layer12"
     inkscape:label="Stencil 2 (pre-expand)"
     style="display:none"><path
       id="path1684-6-7-3-5-0-1"
       style="display:inline;fill:#800080;stroke-width:0.329999;stroke-linecap:round;stroke-linejoin:round;stroke-dasharray:1.32, 1.32"
       inkscape:label="Purple"
       d="m 0.03203939,28.585335 -0.01291911,3.080432 c 0,0 3.44382662,0.968669 5.21466882,1.035079 2.8218647,0.105863 5.5856719,-1.057636 8.4093059,-1.022676 1.594295,0.01974 3.494976,0.500142 5.059639,0.852144 l 0.0041,-1.173055 a 0.415042,0.415042 0 0 1 0.125057,-0.294556 l 1.039214,-1.019576 a 0.415042,0.415042 0 0 1 0.283186,-0.119372 l 0.06253,-0.0015 C 20.148796,29.812126 20.086545,29.698034 20.030302,29.580623 17.872287,29.352854 15.762386,28.622182 13.591935,28.598254 10.796804,28.56744 8.0652961,29.75287 5.2720296,29.646252 3.4861954,29.578088 0.03203939,28.585335 0.03203939,28.585335 Z" /><path
       id="path1684-6-7-3-7"
       style="display:inline;fill:#00ff00;stroke-width:0.329999;stroke-linecap:round;stroke-linejoin:round;stroke-dasharray:1.32, 1.32"
       inkscape:label="Green"
       d="m 0.0449585,22.501986 -0.01291911,3.079915 c 0,0 3.44331591,0.969166 5.21415201,1.035596 2.8218648,0.105862 5.5861896,-1.057637 8.4098226,-1.022677 0.3742,0.0046 0.746487,0.03126 1.117761,0.07028 -0.303963,-0.24048 -0.579292,-0.478889 -0.822689,-0.802018 -0.19793,-0.26277 -0.258591,-0.42447 -0.453202,-0.874882 -0.214685,-0.496875 -0.119306,-1.037056 0.113172,-1.473295 -0.0021,-2.4e-5 -0.0041,2.3e-5 -0.0062,0 -2.79513,-0.03081 -5.5266388,1.154617 -8.3199053,1.047998 -1.7858342,-0.06816 -5.2399902,-1.060917 -5.2399902,-1.060917 z" /><path
       id="path1684-6-3"
       style="display:inline;fill:#d45500;stroke-width:0.329999;stroke-linecap:round;stroke-linejoin:round;stroke-dasharray:1.32, 1.32"
       inkscape:label="Orange"
       d="m 0.00620117,16.418119 -0.01240234,3.080432 c 0,0 3.44331587,0.968649 5.21415197,1.035079 2.8218648,0.105862 5.5861892,-1.057119 8.4098222,-1.022159 2.042251,0.02529 4.033232,0.649033 6.058029,0.925008 v -3.062346 c -2.043847,-0.261799 -4.04914,-0.920384 -6.109188,-0.943095 -2.79513,-0.03081 -5.5271561,1.154617 -8.3204226,1.047998 -1.7858342,-0.06816 -5.23999023,-1.060917 -5.23999023,-1.060917 z" /><path
       id="path3620-0"
       style="color:#000000;display:inline;fill:#808080;stroke-width:0.830001;stroke-linecap:round;stroke-linejoin:round;-inkscape-stroke:none"
       inkscape:label="Head"
       d="m 43.86709,18.599382 a 0.415042,0.415042 0 0 0 -0.290938,0.119372 l -1.066602,1.049032 -1.046448,1.027327 -0.945678,0.913639 -2.736268,0.01602 -0.904337,-0.888835 -1.021126,-1.039213 -0.933794,-1.040763 a 0.415042,0.415042 0 0 0 -0.316259,-0.13901 l -1.121379,0.01757 a 0.415042,0.415042 0 0 0 -0.224276,0.07235 c 0,0 -0.227378,0.151846 -0.48059,0.365353 -0.253213,0.213506 -0.546072,0.459929 -0.70125,0.829923 -0.260146,0.620273 -0.229164,1.407259 -0.177767,2.082044 0.04215,0.553395 0.100844,0.85471 0.127124,1.00614 l -0.896586,0.943095 a 0.415042,0.415042 0 0 0 -0.107487,0.209289 c 0,0 -0.138474,0.731403 -0.207222,1.624707 -0.06875,0.893306 -0.09819,1.938422 0.232544,2.717147 0.272428,0.641441 0.864588,0.872136 1.121378,1.126546 0.348073,0.344848 0.689706,0.706294 1.044898,1.064535 0.344441,0.347398 1.033012,1.031462 1.033012,1.031462 a 0.415042,0.415042 0 0 0 0.293005,0.120922 h 9.288839 a 0.415042,0.415042 0 0 0 0.295072,-0.122989 c 0,0 0.688583,-0.696997 1.033012,-1.050582 0.34148,-0.350559 0.675452,-0.703663 1.011825,-1.049032 0.260677,-0.26765 0.838672,-0.520067 1.099674,-1.162203 0.315837,-0.777041 0.283445,-1.816896 0.212907,-2.704744 -0.07054,-0.887847 -0.207222,-1.613339 -0.207222,-1.613339 a 0.415042,0.415042 0 0 0 -0.09922,-0.201538 L 46.3088,22.96501 c 0.02663,-0.147017 0.08735,-0.449857 0.132809,-0.999939 0.05514,-0.667124 0.08836,-1.444331 -0.167949,-2.060857 C 46.115954,19.524872 45.814501,19.269569 45.552774,19.048969 45.291047,18.82837 45.05668,18.670181 45.05668,18.670181 a 0.415042,0.415042 0 0 0 -0.232544,-0.0708 z" /></g><g
     inkscape:groupmode="layer"
     id="layer13"
     inkscape:label="Stencil 3 (pre-expand)"
     style="display:none"><path
       id="path3580-4"
       style="color:#000000;display:none;fill:#000000;stroke:none;stroke-linecap:round;stroke-linejoin:round;-inkscape-stroke:none"
       inkscape:label="Poptart Outline"
       d="m 23.312272,13.540776 c -2.006999,0 -3.63647,1.629989 -3.63647,3.636987 v 10.838098 c 0,2.007 1.629471,3.634403 3.63647,3.634403 h 10.878923 c -0.0687,-0.06827 -0.650695,-0.64635 -0.976168,-0.974617 -0.355192,-0.358241 -0.696825,-0.719687 -1.044898,-1.064535 -0.256789,-0.254409 -0.84895,-0.485105 -1.121378,-1.126546 -0.330732,-0.778724 -0.301294,-1.823841 -0.232544,-2.717147 0.06875,-0.893303 0.207222,-1.624707 0.207222,-1.624707 a 0.415042,0.415042 0 0 1 0.107487,-0.209289 l 0.896586,-0.943095 c -0.02628,-0.15143 -0.08497,-0.452746 -0.127124,-1.00614 -0.0514,-0.674784 -0.08238,-1.461771 0.177767,-2.082044 0.155178,-0.369993 0.448037,-0.616417 0.70125,-0.829923 0.253211,-0.213507 0.48059,-0.365353 0.48059,-0.365353 a 0.415042,0.415042 0 0 1 0.224276,-0.07235 l 1.121379,-0.01757 a 0.415042,0.415042 0 0 1 0.316259,0.13901 l 0.933794,1.040763 1.021126,1.039213 0.904337,0.888835 2.736268,-0.01602 0.488342,-0.471805 V 17.17776 c 0,-2.006998 -1.627922,-3.636987 -3.63492,-3.636987 z" /></g><g
     inkscape:groupmode="layer"
     id="layer14"
     inkscape:label="Stencil 4 (pre-expand)"
     style="display:none"><path
       id="path3588-8"
       style="color:#000000;display:inline;fill:#808080;stroke-width:0.830001;stroke-linecap:round;stroke-linejoin:round;-inkscape-stroke:none"
       inkscape:label="Tail"
       d="m 15.248682,21.537703 c -0.144955,-0.0026 -0.289636,0.01304 -0.430465,0.04651 -0.489366,0.116318 -0.922343,0.43064 -1.175639,0.872815 -0.255313,0.445699 -0.36896,1.012125 -0.144694,1.531173 0.194611,0.450412 0.255272,0.612112 0.453202,0.874882 0.287761,0.382026 0.617616,0.644917 0.990121,0.933793 0.37852,0.293541 0.806096,0.548079 1.136881,0.738456 0.700511,0.403164 1.748214,0.569991 1.748214,0.569991 l 1.8495,0.395842 v -4.067452 l -2.115117,-0.45527 c -0.07547,-0.06167 -0.261001,-0.212306 -0.384989,-0.31626 C 16.885501,22.41888 16.549009,22.04637 16.175757,21.814689 15.88841,21.636333 15.567581,21.543402 15.248682,21.537703 Z" /><path
       id="path3594-7"
       style="color:#000000;display:inline;fill:#808080;stroke-width:0.830001;stroke-linecap:round;stroke-linejoin:round;-inkscape-stroke:none"
       inkscape:label="legs"
       d="m 20.216337,29.922205 -0.06201,0.0015 a 0.415042,0.415042 0 0 0 -0.283186,0.119372 l -1.039214,1.019576 a 0.415042,0.415042 0 0 0 -0.125057,0.294556 l -0.0078,2.095996 a 0.415042,0.415042 0 0 0 0.404626,0.418063 l 1.987993,0.04444 a 0.415042,0.415042 0 0 0 0.300757,-0.118856 l 1.09399,-1.07642 a 0.415042,0.415042 0 0 0 0.125057,-0.300756 l -0.01395,-0.840259 C 21.59307,31.37907 20.737182,30.764998 20.216293,29.922154 Z m 3.583761,1.728059 -0.01292,0.732772 a 0.415042,0.415042 0 0 0 0.130741,0.310576 l 1.103809,1.028877 a 0.415042,0.415042 0 0 0 0.283186,0.111622 h 2.023133 A 0.415042,0.415042 0 0 0 27.744043,33.4238 l 0.0155,-1.773536 z m 10.327535,0 -0.0083,0.742074 a 0.415042,0.415042 0 0 0 0.113172,0.293005 l 1.023193,1.072286 a 0.415042,0.415042 0 0 0 0.302824,0.129191 l 2.044836,-0.01188 a 0.415042,0.415042 0 0 0 0.412378,-0.418062 l -0.01085,-1.628842 H 34.541015 A 0.415042,0.415042 0 0 1 34.24801,31.707114 c 0,0 -0.05026,-0.04979 -0.05736,-0.05684 z m 5.121651,0.177767 0.0067,0.588078 a 0.415042,0.415042 0 0 0 0.115238,0.28112 l 1.009758,1.0604 a 0.415042,0.415042 0 0 0 0.302824,0.129191 l 2.082043,-0.01188 a 0.415042,0.415042 0 0 0 0.413928,-0.419613 l -0.02119,-1.627291 z" /><path
       style="color:#000000;display:inline;fill:#000000;stroke-linecap:round;stroke-linejoin:round;-inkscape-stroke:none"
       d="m 43.849609,24.699219 a 0.4150005,0.4150005 0 0 0 -0.414062,0.414062 v 0.744141 l -0.640625,-0.0078 A 0.4150005,0.4150005 0 0 0 42.375,26.259779 0.4150005,0.4150005 0 0 0 42.785156,26.6797 l 1.060547,0.01172 a 0.415042,0.415042 0 0 0 0.419922,-0.414062 v -1.164063 a 0.4150005,0.4150005 0 0 0 -0.416016,-0.414062 z m -7.238281,0.02539 a 0.4150005,0.4150005 0 0 0 -0.410156,0.419922 l 0.0078,0.705078 h -0.654297 a 0.4150005,0.4150005 0 0 0 -0.414062,0.414063 0.4150005,0.4150005 0 0 0 0.414062,0.416015 h 1.074219 a 0.415042,0.415042 0 0 0 0.416016,-0.419921 l -0.01367,-1.125 a 0.4150005,0.4150005 0 0 0 -0.419922,-0.410157 z m 6.185547,3.029297 a 0.4150005,0.4150005 0 0 0 -0.410156,0.419922 l 0.0078,0.736328 -2.314453,0.0059 0.01758,-0.699219 a 0.4150005,0.4150005 0 0 0 -0.404297,-0.425781 0.4150005,0.4150005 0 0 0 -0.423828,0.404296 l -0.01758,0.722657 -2.255859,0.0059 L 37,28.248047 a 0.4150005,0.4150005 0 0 0 -0.414063,-0.417969 0.4150005,0.4150005 0 0 0 -0.416015,0.412109 l -0.0078,1.09375 a 0.415042,0.415042 0 0 0 0.416016,0.416016 l 6.238281,-0.01172 a 0.415042,0.415042 0 0 0 0.414063,-0.419922 l -0.01367,-1.15625 A 0.4150005,0.4150005 0 0 0 42.79689,27.753905 Z"
       id="path2907-1"
       inkscape:label="Face" /></g><g
     inkscape:groupmode="layer"
     id="layer5"
     inkscape:label="Final Stencils"
     style="display:inline"><path
       id="path1684-6-7-3-5-1"
       style="display:none;fill:#000000;stroke-width:0.329999;stroke-linecap:round;stroke-linejoin:round;stroke-dasharray:1.32, 1.32"
       inkscape:label="Stencil 1"
       d="m -0.33398438,12.904297 -0.0175781,3.810547 0.25585938,0.07227 c 1.97000282,0.554118 1.80095882,0.464893 2.52148432,0.621094 0.3348363,0.07259 0.679387,0.143302 1.0195313,0.205078 0.1890949,0.03434 0.3770231,0.06552 0.5605469,0.09375 0.2038527,0.03136 0.4031641,0.05891 0.59375,0.08008 0.2115577,0.0235 0.4141305,0.03984 0.6015625,0.04687 2.8741686,0.107825 5.6438461,-1.057786 8.4179691,-1.023437 2.005978,0.02484 3.967483,0.642784 6.009765,0.921875 l 0.396485,0.05273 v -0.607422 c 0,-0.99234 0.442855,-1.883745 1.138671,-2.486328 l 0.669922,-0.578125 -0.884765,-0.03516 c -0.166451,-0.0066 -0.323037,-0.01362 -0.462891,-0.02344 -2.28183,-0.160186 -4.548175,-0.997399 -6.910156,-1.023438 -2.845885,-0.03137 -5.5710717,1.153394 -8.310547,1.048828 -0.1680646,-0.0064 -0.3541386,-0.02224 -0.5546875,-0.04492 C 4.5306309,14.014767 4.3397073,13.98988 4.1425781,13.958984 3.9652194,13.931188 3.7823248,13.89943 3.5976562,13.865234 3.2650215,13.80364 2.9260069,13.733221 2.5957031,13.660156 2.3315393,13.601722 2.0740422,13.541329 1.8300781,13.482422 1.2311273,13.337801 1.2966231,13.373906 0.11132812,13.033203 Z M 24.636719,15.400391 c -1.603283,0 -2.894532,1.291246 -2.894531,2.894531 v 8.560547 c 0,1.603285 1.291248,2.894531 2.894531,2.894531 h 11.544922 c 1.603284,0 2.892578,-1.29158 2.892578,-2.894531 v -8.560547 c 0,-1.602951 -1.289294,-2.894531 -2.892578,-2.894531 z m -24.95312525,3.582031 -0.015625,3.810547 0.25585938,0.07227 c 1.96999897,0.554119 1.80096527,0.464894 2.52148437,0.621094 0.3348362,0.07259 0.6793869,0.143302 1.0195313,0.205078 0.1890948,0.03434 0.377023,0.06552 0.5605468,0.09375 0.2038528,0.03135 0.4031641,0.05891 0.59375,0.08008 0.2115579,0.0235 0.4141309,0.03984 0.6015625,0.04687 2.8586324,0.107242 5.6157949,-1.043142 8.3749999,-1.021484 l 0.214844,0.002 0.09766,-0.191406 c 0.01444,-0.02799 0.02525,-0.0496 0.03711,-0.07031 0.204126,-0.356336 0.555223,-0.612453 0.953126,-0.707031 0.357633,-0.085 0.751268,-0.02387 1.091796,0.1875 0.341855,0.212194 0.654372,0.561331 0.960938,0.81836 0.125928,0.10558 0.313662,0.259018 0.388672,0.320312 l 0.06445,0.05273 2.621094,0.564454 V 20.09375 l -0.304688,-0.04102 c -2.012941,-0.261151 -4.03773,-0.918395 -6.125,-0.941406 -2.845804,-0.03137 -5.5709876,1.151445 -8.3105468,1.046875 -0.168065,-0.0064 -0.354101,-0.02224 -0.5546874,-0.04492 -0.1803405,-0.02039 -0.3711739,-0.04528 -0.5683594,-0.07617 -0.1774095,-0.0278 -0.360189,-0.05955 -0.5449219,-0.09375 C 3.2844371,19.881765 2.945679,19.811347 2.6152344,19.738281 2.3509578,19.679846 2.0936884,19.619455 1.8496094,19.560547 1.2498616,19.4158 1.3134322,19.452182 0.12695312,19.111328 Z m -0.015625,6.099609 -0.015625,3.8125 0.25585938,0.07031 c 1.96825997,0.553944 1.80009367,0.467016 2.51953127,0.623047 0.3347003,0.07259 0.6794961,0.1433 1.0195312,0.205078 0.1890343,0.03434 0.3770696,0.06552 0.5605469,0.09375 0.203801,0.03136 0.4031933,0.05891 0.59375,0.08008 0.2115253,0.0235 0.4141303,0.03984 0.6015625,0.04687 2.8741717,0.107825 5.645802,-1.057785 8.419922,-1.023438 2.126746,0.02633 4.209516,0.71882 6.382812,0.966797 l 0.634766,0.07227 -0.28125,-0.574219 C 20.146384,29.020577 20.025391,28.532656 20.025391,28.015625 V 27.21875 l -2.134766,-0.457031 -0.0098,-0.002 c -1.00127,-0.159767 -1.628907,-0.527345 -1.628906,-0.527344 -0.3279,-0.188718 -0.734754,-0.432975 -1.095703,-0.712891 -0.0703,-0.05451 -0.135672,-0.104026 -0.201172,-0.15625 l -0.08008,-0.0625 -0.09961,-0.01172 c -0.393265,-0.04355 -0.792084,-0.07367 -1.195313,-0.07812 -2.845889,-0.03137 -5.5710713,1.153392 -8.3105468,1.048828 -0.1680415,-0.0064 -0.3541146,-0.02221 -0.5546874,-0.04492 -0.1803279,-0.02042 -0.3711822,-0.04718 -0.5683594,-0.07813 -0.1774019,-0.02784 -0.3601946,-0.05754 -0.5449219,-0.0918 C 3.2688216,25.983218 2.9300482,25.911092 2.5996094,25.837891 2.3353376,25.779347 2.0780599,25.719175 1.8339844,25.660156 1.2349726,25.515311 1.2991941,25.552296 0.11328125,25.210938 Z"
       inkscape:path-effect="#path-effect1116"
       inkscape:original-d="M 0.01343587,13.36921 0,16.449125 c 0,0 3.4438363,0.968646 5.2146688,1.035079 2.8218591,0.105862 5.5846432,-1.058154 8.4082722,-1.023193 2.04014,0.02526 4.030227,0.647568 6.052861,0.923974 v -0.207222 c 0,-1.097968 0.489499,-2.083072 1.259871,-2.75022 -0.166645,-0.0066 -0.329344,-0.01303 -0.474906,-0.02325 -2.315697,-0.162563 -4.567215,-0.997604 -6.888469,-1.023194 -2.795124,-0.03081 -5.5271613,1.155134 -8.3204222,1.048515 -1.7858306,-0.06817 -5.23843993,-1.0604 -5.23843993,-1.0604 z M 24.636739,15.749943 c -1.409424,0 -2.545064,1.135638 -2.545064,2.545064 v 8.560718 c 0,1.409427 1.13564,2.544548 2.545064,2.544548 h 11.545032 c 1.409426,0 2.542997,-1.135121 2.542997,-2.544548 v -8.560718 c 0,-1.409426 -1.133571,-2.545064 -2.542997,-2.545064 z M 0.03100586,19.447392 0.01963704,22.527307 c 0,0 3.44383606,0.968649 5.21466876,1.035079 2.8067026,0.105293 5.5554832,-1.043166 8.3633142,-1.021126 0.01454,-0.02819 0.02931,-0.05691 0.04496,-0.08423 0.253296,-0.442173 0.686273,-0.756497 1.175639,-0.872815 0.450654,-0.107112 0.939581,-0.02895 1.35754,0.230477 0.37325,0.231681 0.709744,0.604191 0.999939,0.847494 0.123988,0.103954 0.309519,0.254589 0.384989,0.316259 l 2.115117,0.45527 v -3.033407 c -2.034952,-0.264007 -4.032466,-0.916862 -6.083867,-0.939477 -2.795124,-0.03081 -5.5271612,1.153583 -8.3204221,1.046964 -1.7858307,-0.06816 -5.24050704,-1.0604 -5.24050704,-1.0604 z m -0.01550293,6.099369 -0.01136882,3.081982 c 0,0 3.44176899,0.96865 5.21260169,1.035079 2.821859,0.105863 5.5867112,-1.058153 8.4103392,-1.023193 2.162915,0.02678 4.268704,0.723729 6.417696,0.968933 -0.235986,-0.481411 -0.368969,-1.021521 -0.368969,-1.593701 v -0.513664 l -1.8495,-0.396875 c 0,0 -1.047703,-0.166827 -1.748214,-0.569991 -0.330783,-0.190377 -0.758363,-0.444915 -1.136881,-0.738456 -0.07003,-0.0543 -0.137625,-0.106766 -0.204639,-0.160197 -0.38546,-0.04269 -0.771923,-0.07167 -1.160652,-0.07596 -2.795128,-0.03081 -5.5266452,1.155132 -8.3199061,1.048515 -1.7858306,-0.06817 -5.24050697,-1.062468 -5.24050697,-1.062468 z" /><path
       id="path1684-6-7-3-5-0-1-8"
       style="display:none;fill:#000000;stroke-width:0.329999;stroke-linecap:round;stroke-linejoin:round;stroke-dasharray:1.32, 1.32"
       inkscape:label="Stencil 2"
       d="m -0.34179688,15.953125 -0.015625,3.810547 0.25585938,0.07031 c 1.9682594,0.553944 1.8000925,0.467016 2.5195313,0.623047 0.3347002,0.07259 0.6794961,0.143301 1.0195312,0.205078 0.1890343,0.03434 0.3770695,0.06552 0.5605469,0.09375 0.2038011,0.03136 0.4031932,0.05891 0.59375,0.08008 0.2115254,0.0235 0.4141299,0.03984 0.6015625,0.04687 2.874094,0.107822 5.6457196,-1.055832 8.4199216,-1.021484 2.0081,0.02487 3.97115,0.643218 6.015625,0.921875 l 0.396485,0.05273 v -3.769532 l -0.304688,-0.03906 c -2.021453,-0.25893 -4.05429,-0.922204 -6.150391,-0.945313 -2.845806,-0.03137 -5.5709844,1.151444 -8.3105464,1.046875 -0.1680652,-0.0064 -0.3541009,-0.02224 -0.5546875,-0.04492 -0.1803405,-0.02039 -0.3711738,-0.04528 -0.5683593,-0.07617 -0.1774096,-0.0278 -0.360189,-0.05955 -0.5449219,-0.09375 C 3.2590464,16.852468 2.9202883,16.78205 2.5898438,16.708984 2.3255672,16.650549 2.0682978,16.590158 1.8242188,16.53125 1.2244722,16.386503 1.2880399,16.422885 0.1015625,16.082031 Z M 43.867188,18.25 c -0.200257,1.62e-4 -0.393964,0.07773 -0.53711,0.21875 l -1.066406,1.048828 -1.044922,1.025391 -0.845703,0.816406 -2.447266,0.01563 -0.798828,-0.785156 -1.011719,-1.027344 -0.0098,-0.01172 -0.921875,-1.027343 c -0.148408,-0.166692 -0.361929,-0.259216 -0.583985,-0.25586 l -1.123047,0.01758 c -0.147236,0.0036 -0.292969,0.04934 -0.412109,0.13086 -0.323243,0.215812 -0.422776,0.313675 -0.511719,0.388672 -0.253108,0.213417 -0.607327,0.510949 -0.796875,0.96289 -0.293651,0.700164 -0.257041,1.56192 -0.205078,2.244141 0.03626,0.476097 0.07784,0.690211 0.107422,0.859375 l -0.78125,0.820312 c -0.101887,0.106806 -0.16971,0.241139 -0.197265,0.386719 -0.166416,0.880549 -0.207025,1.585884 -0.212891,1.662109 -0.06926,0.899888 -0.09445,2.046845 0.259765,2.88086 0.309603,0.72897 1.012813,1.055538 1.197266,1.238281 0.345325,0.342125 0.685854,0.70232 1.042969,1.0625 0.34572,0.348688 -0.342186,-0.334319 1.035156,1.033203 0.143264,0.14264 0.336362,0.222739 0.539063,0.222656 h 9.289062 c 0.204645,8.5e-5 0.398968,-0.08116 0.542969,-0.226562 1.377693,-1.394541 0.689589,-0.697982 1.035156,-1.052734 0.342659,-0.35177 0.676535,-0.704681 1.011719,-1.048829 0.182907,-0.1878 0.870961,-0.530256 1.173828,-1.27539 0.337923,-0.831378 0.309339,-1.968895 0.238281,-2.863281 -0.0061,-0.07695 -0.04956,-0.782294 -0.21289,-1.650391 -0.02595,-0.13987 -0.08973,-0.26653 -0.183594,-0.371094 l -0.759766,-0.839844 c 0.0304,-0.167118 0.07605,-0.381375 0.115235,-0.855468 0.0558,-0.675177 0.09409,-1.528484 -0.195313,-2.22461 -0.192065,-0.461986 -0.556074,-0.76721 -0.818359,-0.988281 -0.09756,-0.08223 -0.186568,-0.173478 -0.525391,-0.402344 C 45.124313,18.292938 44.975206,18.24975 44.824219,18.25 Z m -44.16992238,3.787109 -0.0175781,3.810547 0.25585938,0.07227 c 1.96999792,0.554118 1.80096472,0.464893 2.52148432,0.621094 0.3348363,0.07259 0.6793869,0.143301 1.0195313,0.205078 0.1890949,0.03434 0.377023,0.06552 0.5605469,0.09375 0.2038528,0.03136 0.403164,0.05891 0.59375,0.08008 0.2115579,0.0235 0.4141305,0.03984 0.6015625,0.04687 2.8740938,0.10782 5.6456881,-1.055833 8.4199221,-1.021485 0.360623,0.0044 0.720241,0.03013 1.083984,0.06836 l 1.201172,0.126953 -0.947266,-0.75 c -0.295702,-0.233945 -0.543464,-0.451124 -0.759765,-0.738281 -0.166585,-0.221158 -0.213122,-0.346715 -0.410157,-0.802735 -0.162906,-0.377036 -0.0951,-0.804559 0.09961,-1.169921 l 0.271484,-0.507813 -0.576172,-0.0059 c -0.0094,-1.08e-4 -0.0059,-10e-7 -0.0059,0 C 10.763568,22.134647 8.03839,23.31746 5.2988281,23.212891 5.1307628,23.206476 4.9447272,23.190647 4.7441406,23.167969 4.5638001,23.14758 4.3729669,23.122692 4.1757812,23.091797 3.9983717,23.064 3.8155923,23.032242 3.6308594,22.998047 3.2981089,22.936452 2.9593508,22.866034 2.6289062,22.792969 2.3646297,22.734534 2.1073603,22.674142 1.8632812,22.615234 1.2635334,22.470487 1.3271034,22.506869 0.140625,22.166016 Z m -0.0136719,6.083985 -0.015625,3.810547 0.25585938,0.07227 C 1.8937938,32.558028 1.72484,32.468809 2.4453125,32.625 c 0.3348363,0.07259 0.6793864,0.143302 1.0195313,0.205078 0.1890951,0.03434 0.3770225,0.06552 0.5605468,0.09375 0.2038533,0.03135 0.4031633,0.05891 0.59375,0.08008 0.2115588,0.0235 0.4141336,0.03985 0.6015625,0.04687 2.8741714,0.107826 5.6438449,-1.057784 8.4179689,-1.023437 1.560768,0.01933 3.419883,0.49286 4.988281,0.845703 l 0.423828,0.0957 0.0059,-1.609375 c 1.02e-4,-0.01783 0.0087,-0.03436 0.02148,-0.04687 l 1.039063,-1.019531 c 0.01153,-0.01137 0.02769,-0.01909 0.04883,-0.01953 l 0.666015,-0.02148 -0.316406,-0.513672 c -0.06064,-0.09826 -0.116319,-0.200772 -0.167969,-0.308593 l -0.08594,-0.177735 -0.19336,-0.01953 C 17.937353,29.007504 15.804173,28.272394 13.595703,28.248047 10.749814,28.216673 8.0246358,29.40144 5.2851562,29.296875 5.1170908,29.29046 4.9310554,29.274631 4.7304688,29.251953 4.5501281,29.231564 4.359295,29.206677 4.1621094,29.175781 3.9846998,29.147984 3.8019204,29.116227 3.6171875,29.082031 3.284437,29.020436 2.945679,28.950019 2.6152344,28.876953 2.3509578,28.818518 2.0936884,28.758126 1.8496094,28.699219 1.2498573,28.554471 1.3134348,28.590853 0.12695312,28.25 Z"
       inkscape:path-effect="#path-effect1161"
       inkscape:original-d="m 0.00620117,16.418119 -0.01240234,3.080432 c 0,0 3.44331767,0.968649 5.21415197,1.035079 2.821862,0.105862 5.5861922,-1.057119 8.4098222,-1.022159 2.042249,0.02529 4.033234,0.649033 6.058029,0.925008 V 17.374133 C 17.631957,17.112335 15.62666,16.453749 13.566614,16.431038 10.771487,16.400228 8.0394551,17.585655 5.2461914,17.479036 3.460359,17.410877 0.00620117,16.418119 0.00620117,16.418119 Z M 43.86709,18.599382 a 0.415042,0.415042 0 0 0 -0.290938,0.119372 l -1.066602,1.049032 -1.046448,1.027327 -0.945678,0.913639 -2.736268,0.01602 -0.904337,-0.888835 -1.021126,-1.039213 -0.933794,-1.040763 a 0.415042,0.415042 0 0 0 -0.316259,-0.13901 l -1.121379,0.01757 a 0.415042,0.415042 0 0 0 -0.224276,0.07235 c 0,0 -0.227379,0.151846 -0.48059,0.365353 -0.253213,0.213506 -0.546072,0.45993 -0.70125,0.829923 -0.260145,0.620273 -0.229164,1.40726 -0.177767,2.082044 0.04215,0.553394 0.100844,0.85471 0.127124,1.00614 l -0.896586,0.943095 a 0.415042,0.415042 0 0 0 -0.107487,0.209289 c 0,0 -0.138474,0.731404 -0.207222,1.624707 -0.06875,0.893306 -0.09819,1.938423 0.232544,2.717147 0.272428,0.641441 0.864589,0.872137 1.121378,1.126546 0.348073,0.344848 0.689706,0.706294 1.044898,1.064535 0.344441,0.347398 1.033012,1.031462 1.033012,1.031462 a 0.415042,0.415042 0 0 0 0.293005,0.120922 h 9.288839 a 0.415042,0.415042 0 0 0 0.295072,-0.122989 c 0,0 0.688583,-0.696998 1.033012,-1.050582 0.34148,-0.350559 0.675452,-0.703663 1.011825,-1.049032 0.260676,-0.26765 0.838672,-0.520068 1.099674,-1.162203 0.315837,-0.77704 0.283445,-1.816897 0.212907,-2.704744 -0.07054,-0.887846 -0.207222,-1.613339 -0.207222,-1.613339 a 0.415042,0.415042 0 0 0 -0.09922,-0.201538 L 46.3088,22.96501 c 0.02663,-0.147017 0.08735,-0.449858 0.132809,-0.999939 0.05514,-0.667124 0.08836,-1.444331 -0.167949,-2.060857 -0.157706,-0.379341 -0.459159,-0.634645 -0.720886,-0.855245 -0.261727,-0.220598 -0.496094,-0.378788 -0.496094,-0.378788 a 0.415042,0.415042 0 0 0 -0.232544,-0.0708 z M 0.0449585,22.501986 0.03203939,25.581901 c 0,0 3.44331771,0.969166 5.21415201,1.035596 2.821862,0.105862 5.5861926,-1.057637 8.4098226,-1.022677 0.3742,0.0046 0.746488,0.03126 1.117761,0.07028 -0.303962,-0.24048 -0.579292,-0.478889 -0.822689,-0.802018 -0.197929,-0.26277 -0.258591,-0.424471 -0.453202,-0.874882 -0.214685,-0.496875 -0.119306,-1.037057 0.113172,-1.473295 -0.0021,-2.4e-5 -0.0041,2.3e-5 -0.0062,0 -2.795127,-0.03081 -5.5266416,1.154617 -8.3199053,1.047998 -1.7858324,-0.06816 -5.2399902,-1.060917 -5.2399902,-1.060917 z m -0.01291911,6.083349 -0.01291911,3.080432 c 0,0 3.44382832,0.968669 5.21466882,1.035079 2.8218618,0.105863 5.5856749,-1.057636 8.4093059,-1.022676 1.594293,0.01974 3.494978,0.500142 5.059639,0.852144 l 0.0041,-1.173055 a 0.415042,0.415042 0 0 1 0.125057,-0.294556 l 1.039214,-1.019576 a 0.415042,0.415042 0 0 1 0.283186,-0.119372 l 0.06253,-0.0015 C 20.148829,29.812076 20.086545,29.698034 20.030302,29.580623 17.872289,29.352855 15.762384,28.622182 13.591935,28.598254 10.796807,28.56744 8.0652933,29.75287 5.2720296,29.646252 3.4861972,29.578089 0.03203939,28.585335 0.03203939,28.585335 Z" /><path
       id="path3580-4-6"
       style="color:#000000;display:none;fill:#000000;stroke:none;stroke-linecap:round;stroke-linejoin:round;-inkscape-stroke:none"
       inkscape:label="Stencil 3"
       d="m 23.3125,13.191406 c -2.202391,0 -3.986328,1.783938 -3.986328,3.986328 V 28.015625 C 19.326172,30.218017 21.110343,32 23.3125,32 H 35.041016 L 34.4375,31.402344 c -0.06911,-0.06867 -0.650302,-0.645565 -0.974609,-0.972656 -0.353269,-0.356302 -0.696054,-0.718835 -1.046875,-1.066407 -0.329125,-0.326074 -0.809669,-0.461713 -1.044922,-1.015625 -0.30725,-0.723433 -0.273322,-1.66601 -0.205078,-2.552734 0.0026,-0.03382 0.04049,-0.737692 0.201172,-1.587891 0.0022,-0.01186 0.0085,-0.02366 0.01758,-0.0332 l 1.017578,-1.070312 -0.0293,-0.173828 c -0.02869,-0.165304 -0.08259,-0.441577 -0.123047,-0.972657 -0.05083,-0.667345 -0.07625,-1.37954 0.150391,-1.919922 0.120809,-0.288046 0.352149,-0.48367 0.605468,-0.697265 0.0643,-0.05422 0.144366,-0.138885 0.451172,-0.34375 0.01,-0.0068 0.02306,-0.01146 0.0332,-0.01172 l 1.121094,-0.01758 c 0.01937,-2.93e-4 0.03793,0.009 0.05078,0.02344 l 0.9375,1.046875 1.03125,1.048829 1.007813,0.990234 3.021484,-0.01758 0.695313,-0.673828 v -4.207032 c 0,-2.202155 -1.781985,-3.986328 -3.984375,-3.986328 z"
       inkscape:path-effect="#path-effect1188"
       inkscape:original-d="m 23.312272,13.540776 c -2.006999,0 -3.63647,1.629989 -3.63647,3.636987 v 10.838098 c 0,2.007 1.629471,3.634403 3.63647,3.634403 h 10.878923 c -0.0687,-0.06827 -0.650695,-0.64635 -0.976168,-0.974617 -0.355192,-0.358241 -0.696825,-0.719687 -1.044898,-1.064535 -0.256789,-0.254409 -0.84895,-0.485105 -1.121378,-1.126546 -0.330732,-0.778724 -0.301294,-1.823841 -0.232544,-2.717147 0.06875,-0.893303 0.207222,-1.624707 0.207222,-1.624707 a 0.415042,0.415042 0 0 1 0.107487,-0.209289 l 0.896586,-0.943095 c -0.02628,-0.15143 -0.08497,-0.452746 -0.127124,-1.00614 -0.0514,-0.674784 -0.08238,-1.461771 0.177767,-2.082044 0.155178,-0.369993 0.448037,-0.616417 0.70125,-0.829923 0.253211,-0.213507 0.48059,-0.365353 0.48059,-0.365353 a 0.415042,0.415042 0 0 1 0.224276,-0.07235 l 1.121379,-0.01757 a 0.415042,0.415042 0 0 1 0.316259,0.13901 l 0.933794,1.040763 1.021126,1.039213 0.904337,0.888835 2.736268,-0.01602 0.488342,-0.471805 V 17.17776 c 0,-2.006998 -1.627922,-3.636987 -3.63492,-3.636987 z" /><path
       id="path3588-8-9"
       style="color:#000000;display:none;fill:#000000;stroke-width:0.830001;stroke-linecap:round;stroke-linejoin:round;-inkscape-stroke:none"
       inkscape:label="Stencil 4"
       d="m 15.191406,21.1875 c -0.152625,0.002 -0.305156,0.02147 -0.453125,0.05664 -0.580825,0.138057 -1.09597,0.51105 -1.398437,1.039062 -0.296337,0.517314 -0.441737,1.201092 -0.164063,1.84375 0.192187,0.444801 0.266819,0.642882 0.496094,0.947266 0.317763,0.421855 0.680146,0.709544 1.054687,1 0.396109,0.307181 0.844067,0.571635 1.177735,0.763672 0,0 0.725285,0.431074 1.867187,0.613281 l 2.253907,0.484375 v -4.785156 l -2.308594,-0.496094 c -0.08927,-0.07286 -0.214988,-0.174735 -0.316406,-0.259766 -0.273823,-0.229576 -0.634414,-0.625783 -1.039063,-0.876953 -0.340217,-0.211172 -0.724585,-0.323236 -1.107422,-0.330078 -0.02328,-4.18e-4 -0.04248,-2.7e-4 -0.0625,0 z m 28.658203,3.162109 c -0.422909,0.0011 -0.76258,0.33986 -0.763671,0.763672 v 0.390625 L 42.798828,25.5 c -0.424059,-0.0047 -0.768665,0.331297 -0.773437,0.755859 -0.0047,0.424246 0.33118,0.768136 0.755859,0.773438 l 1.060547,0.01172 c 0.426836,0.0047 0.772316,-0.335714 0.773437,-0.763672 v -1.164063 c -0.0011,-0.4242 -0.341195,-0.76469 -0.765625,-0.763672 z M 36.607422,24.375 c -0.423999,0.0053 -0.761134,0.349314 -0.75586,0.773438 L 35.855469,25.5 h -0.300781 c -0.422908,0.0011 -0.762581,0.3407 -0.763672,0.763672 -0.001,0.424351 0.338537,0.764528 0.763672,0.765625 h 1.074218 c 0.428484,0.001 0.770345,-0.344878 0.765625,-0.773438 l -0.01367,-1.125 C 37.376097,24.70649 37.031852,24.369728 36.607422,24.375 Z m 6.185547,3.029297 c -0.424368,0.0048 -0.761126,0.34966 -0.75586,0.773437 l 0.0039,0.382813 -1.601563,0.0059 0.0078,-0.339844 c 0.01119,-0.424265 -0.320357,-0.774661 -0.746094,-0.785156 -0.423033,-0.0091 -0.770229,0.322632 -0.78125,0.746094 l -0.0098,0.380859 -1.5625,0.0059 0.002,-0.324219 c 0.0031,-0.425789 -0.338061,-0.768443 -0.763671,-0.769531 -0.422852,-0.001 -0.762954,0.336906 -0.765626,0.759765 l -0.0078,1.095704 c -9.77e-4,0.425638 0.340133,0.766603 0.765625,0.765624 l 6.238281,-0.01172 c 0.426866,-0.0011 0.768909,-0.346401 0.763672,-0.773438 l -0.01367,-1.15625 c -0.0048,-0.424367 -0.349443,-0.761126 -0.773437,-0.755859 z m -22.384766,2.162109 -0.261719,0.0078 c -0.195295,0.0038 -0.382296,0.08156 -0.521484,0.21875 L 18.587891,30.8125 c -0.146546,0.143112 -0.229294,0.338188 -0.230469,0.542969 l -0.0078,2.095703 c -0.0032,0.418865 0.326221,0.759004 0.746094,0.769531 l 1.988281,0.04492 c 0.207305,0.0049 0.407275,-0.07393 0.554688,-0.21875 l 1.091797,-1.076172 c 0.149279,-0.145769 0.232413,-0.345755 0.230469,-0.556641 l -0.01758,-1.121093 -0.277343,-0.05664 C 21.758523,31.055324 20.984688,30.500426 20.513672,29.738281 Z M 23.457031,31.300781 23.4375,32.375 c -0.0042,0.216563 0.08371,0.4253 0.242188,0.574219 l 1.103515,1.029297 c 0.142204,0.132723 0.328123,0.205078 0.521485,0.205078 h 2.023437 c 0.421507,9.97e-4 0.760809,-0.333288 0.765625,-0.75586 l 0.01953,-2.126953 z m 10.324219,0 -0.01172,1.085938 c -0.0039,0.200695 0.07019,0.394008 0.208985,0.541015 l 1.023437,1.070313 c 0.14561,0.153286 0.347627,0.239249 0.558594,0.238281 l 2.044922,-0.01172 c 0.424444,-0.0027 0.762859,-0.345731 0.759765,-0.769531 l -0.01172,-1.976562 h -3.8125 c -0.0168,7e-6 -0.0332,-0.0079 -0.04492,-0.01953 -0.09911,-0.0992 -0.04916,-0.04727 -0.05859,-0.05664 l -0.101562,-0.101563 z m 5.115234,0.177735 0.0098,0.943359 c 0.0028,0.193257 0.0778,0.378554 0.210938,0.517578 l 1.009765,1.058594 c 0.14561,0.153286 0.347663,0.239249 0.558594,0.238281 l 2.080078,-0.01172 c 0.42704,-0.0011 0.768383,-0.345834 0.763672,-0.773437 l -0.02539,-1.972656 z"
       inkscape:path-effect="#path-effect1225"
       inkscape:original-d="m 15.194421,21.537703 c -0.126726,0.0017 -0.252979,0.01722 -0.376204,0.04651 -0.489366,0.116318 -0.922343,0.430641 -1.175639,0.872815 -0.255313,0.445699 -0.36896,1.012125 -0.144694,1.531173 0.194611,0.450411 0.255273,0.612112 0.453202,0.874882 0.287761,0.382025 0.617616,0.644917 0.990121,0.933793 0.378519,0.293541 0.806097,0.548079 1.136881,0.738456 0.700511,0.403164 1.748214,0.569991 1.748214,0.569991 l 1.8495,0.395842 v -4.067452 l -2.115117,-0.45527 c -0.07547,-0.06167 -0.261001,-0.212305 -0.384989,-0.316259 -0.290195,-0.243303 -0.626688,-0.615813 -0.999939,-0.847494 -0.287347,-0.178356 -0.608177,-0.271287 -0.927075,-0.276986 -0.01812,-3.25e-4 -0.03616,-2.44e-4 -0.05426,0 z m 28.655099,3.161565 a 0.4150005,0.4150005 0 0 0 -0.413928,0.413928 v 0.74414 l -0.640788,-0.0078 a 0.4150005,0.4150005 0 0 0 -0.419613,0.410311 0.4150005,0.4150005 0 0 0 0.409794,0.419612 l 1.060918,0.01189 a 0.415042,0.415042 0 0 0 0.419612,-0.413928 v -1.16427 A 0.4150005,0.4150005 0 0 0 43.84952,24.699268 Z m -7.238318,0.02532 a 0.4150005,0.4150005 0 0 0 -0.409794,0.420129 l 0.0078,0.704867 h -0.65474 a 0.4150005,0.4150005 0 0 0 -0.413928,0.413928 0.4150005,0.4150005 0 0 0 0.413928,0.415995 h 1.074353 a 0.415042,0.415042 0 0 0 0.415995,-0.419612 L 37.031331,25.1349 a 0.4150005,0.4150005 0 0 0 -0.420129,-0.410312 z m 6.185669,3.029272 a 0.4150005,0.4150005 0 0 0 -0.410311,0.42013 l 0.0078,0.736389 -2.314071,0.0057 0.01757,-0.699182 a 0.4150005,0.4150005 0 0 0 -0.404627,-0.425813 0.4150005,0.4150005 0 0 0 -0.423746,0.404109 l -0.01757,0.722954 -2.255677,0.0057 0.0036,-0.675928 a 0.4150005,0.4150005 0 0 0 -0.413928,-0.418062 0.4150005,0.4150005 0 0 0 -0.415996,0.412378 l -0.0078,1.09399 a 0.415042,0.415042 0 0 0 0.415995,0.415995 l 6.238379,-0.01189 A 0.415042,0.415042 0 0 0 43.230417,29.3202 L 43.217,28.164172 a 0.4150005,0.4150005 0 0 0 -0.420129,-0.410311 z m -22.580534,2.168344 -0.06201,0.0015 a 0.415042,0.415042 0 0 0 -0.283186,0.119372 l -1.039214,1.019576 a 0.415042,0.415042 0 0 0 -0.125057,0.294556 l -0.0078,2.095996 a 0.415042,0.415042 0 0 0 0.404626,0.418063 l 1.987993,0.04444 a 0.415042,0.415042 0 0 0 0.300757,-0.118856 l 1.09399,-1.07642 a 0.415042,0.415042 0 0 0 0.125057,-0.300756 l -0.01395,-0.840259 c -1.004472,-0.200347 -1.860361,-0.81442 -2.38125,-1.657263 z m 3.583761,1.728059 -0.01292,0.732772 a 0.415042,0.415042 0 0 0 0.130741,0.310576 l 1.103809,1.028877 a 0.415042,0.415042 0 0 0 0.283186,0.111622 h 2.023133 a 0.415042,0.415042 0 0 0 0.415996,-0.41031 l 0.0155,-1.773536 z m 10.327535,0 -0.0083,0.742074 a 0.415042,0.415042 0 0 0 0.113172,0.293005 l 1.023193,1.072286 a 0.415042,0.415042 0 0 0 0.302824,0.129191 l 2.044836,-0.01188 a 0.415042,0.415042 0 0 0 0.412378,-0.418062 l -0.01085,-1.628842 H 34.541015 A 0.415042,0.415042 0 0 1 34.24801,31.707113 c 0,0 -0.05026,-0.04979 -0.05736,-0.05684 z m 5.121651,0.177767 0.0067,0.588078 a 0.415042,0.415042 0 0 0 0.115238,0.28112 l 1.009758,1.0604 a 0.415042,0.415042 0 0 0 0.302824,0.129191 l 2.082043,-0.01188 a 0.415042,0.415042 0 0 0 0.413928,-0.419613 l -0.02119,-1.627291 z" /></g><g
     inkscape:groupmode="layer"
     id="layer9"
     inkscape:label="Masks"
     style="display:none"><path
       id="path4276"
       style="color:#000000;display:inline;fill:#fff6d5;stroke-width:0.83;stroke-linecap:round;stroke-linejoin:round;-inkscape-stroke:none"
       inkscape:label="WholeCat"
       d="m 23.312272,13.540776 c -2.007001,0 -3.63647,1.629987 -3.63647,3.636987 v 6.255949 l -2.115117,-0.45527 c -0.07547,-0.06167 -0.261001,-0.212305 -0.384989,-0.316259 -0.290195,-0.243303 -0.626686,-0.615813 -0.999939,-0.847494 -0.417959,-0.259427 -0.906886,-0.337589 -1.35754,-0.230477 -0.489366,0.116318 -0.922343,0.430639 -1.175639,0.872815 -0.255313,0.445699 -0.36896,1.012125 -0.144694,1.531173 0.194611,0.450413 0.255271,0.612112 0.453202,0.874882 0.287761,0.382027 0.617616,0.644917 0.990121,0.933793 0.378521,0.293541 0.806095,0.548079 1.136881,0.738456 0.700511,0.403164 1.748214,0.569991 1.748214,0.569991 l 1.8495,0.395842 v 0.514697 c 0,0.69937 0.198261,1.351904 0.541052,1.906344 l -0.06253,0.0015 a 0.415042,0.415042 0 0 0 -0.283186,0.119372 l -1.039214,1.019576 a 0.415042,0.415042 0 0 0 -0.125057,0.294556 l -0.0078,2.095996 a 0.415042,0.415042 0 0 0 0.404626,0.418063 l 1.987993,0.04444 a 0.415042,0.415042 0 0 0 0.300757,-0.118856 l 1.09399,-1.07642 a 0.415042,0.415042 0 0 0 0.125057,-0.300756 l -0.01395,-0.840259 c 0.231226,0.04614 0.46997,0.0708 0.714685,0.0708 h 0.487826 l -0.01292,0.732772 a 0.415042,0.415042 0 0 0 0.130741,0.310576 l 1.103809,1.028877 a 0.415042,0.415042 0 0 0 0.283186,0.111622 H 27.328 A 0.415042,0.415042 0 0 0 27.744043,33.4238 l 0.0155,-1.773536 h 6.368087 l -0.0083,0.742074 a 0.415042,0.415042 0 0 0 0.113172,0.293005 l 1.023193,1.072286 a 0.415042,0.415042 0 0 0 0.302824,0.129191 l 2.044836,-0.01188 a 0.415042,0.415042 0 0 0 0.412378,-0.418062 l -0.01085,-1.628842 h 1.244369 l 0.0067,0.588078 a 0.415042,0.415042 0 0 0 0.115238,0.28112 l 1.009758,1.0604 a 0.415042,0.415042 0 0 0 0.302824,0.129191 l 2.082043,-0.01188 a 0.415042,0.415042 0 0 0 0.413928,-0.419613 l -0.02119,-1.627291 h 0.671277 a 0.415042,0.415042 0 0 0 0.295072,-0.122989 c 0,0 0.688583,-0.696997 1.033012,-1.050582 0.34148,-0.350559 0.675452,-0.703663 1.011825,-1.049032 0.260677,-0.26765 0.838672,-0.520067 1.099674,-1.162203 0.315837,-0.777041 0.283445,-1.816896 0.212907,-2.704744 -0.07054,-0.887847 -0.207222,-1.613339 -0.207222,-1.613339 a 0.415042,0.415042 0 0 0 -0.09922,-0.201538 l -0.867131,-0.958597 c 0.02663,-0.147017 0.08735,-0.449857 0.132809,-0.999939 0.05514,-0.667124 0.08836,-1.444331 -0.167949,-2.060857 -0.157706,-0.379342 -0.459159,-0.634645 -0.720886,-0.855245 -0.261727,-0.220599 -0.496094,-0.378788 -0.496094,-0.378788 a 0.415042,0.415042 0 0 0 -0.232544,-0.0708 H 43.86709 a 0.415042,0.415042 0 0 0 -0.290938,0.119372 l -1.066602,1.049032 -1.046448,1.027327 -0.457336,0.441834 v -4.059184 c 0,-2.007 -1.62792,-3.636987 -3.63492,-3.636987 z" /></g></svg>
