<?xml version="1.0" encoding="UTF-8" standalone="no"?>
<!-- Created with Inkscape (http://www.inkscape.org/) -->

<svg
   width="48mm"
   height="48mm"
   viewBox="0 0 48 48"
   version="1.1"
   id="svg5"
   xml:space="preserve"
   inkscape:version="1.2.2 (732a01da63, 2022-12-09)"
   sodipodi:docname="nyan.svg"
   inkscape:export-filename="nyan - stencil 2.svg"
   inkscape:export-xdpi="96"
   inkscape:export-ydpi="96"
   xmlns:inkscape="http://www.inkscape.org/namespaces/inkscape"
   xmlns:sodipodi="http://sodipodi.sourceforge.net/DTD/sodipodi-0.dtd"
   xmlns="http://www.w3.org/2000/svg"
   xmlns:svg="http://www.w3.org/2000/svg"><sodipodi:namedview
     id="namedview7"
     pagecolor="#ffffff"
     bordercolor="#000000"
     borderopacity="0.25"
     inkscape:showpageshadow="2"
     inkscape:pageopacity="0.0"
     inkscape:pagecheckerboard="0"
     inkscape:deskcolor="#d1d1d1"
     inkscape:document-units="mm"
     showgrid="false"
     inkscape:zoom="7.319248"
     inkscape:cx="7.172868"
     inkscape:cy="85.93779"
     inkscape:window-width="3440"
     inkscape:window-height="1369"
     inkscape:window-x="2552"
     inkscape:window-y="-8"
     inkscape:window-maximized="1"
     inkscape:current-layer="layer13" /><defs
     id="defs2"><inkscape:path-effect
       effect="offset"
       id="path-effect1116"
       is_visible="true"
       lpeversion="1.2"
       linejoin_type="miter"
       unit="mm"
       offset="0.35"
       miter_limit="4"
       attempt_force_join="false"
       update_on_knot_move="true" /></defs><g
     inkscape:groupmode="layer"
     id="layer5"
     inkscape:label="Final Stencils"
     style="display:inline"><path
       id="path1684-6-7-3-5-1"
       style="display:inline;fill:#000000;stroke-width:0.329999;stroke-linecap:round;stroke-linejoin:round;stroke-dasharray:1.32, 1.32"
       inkscape:label="Stencil 1"
       d="m -0.33398438,12.904297 -0.0175781,3.810547 0.25585938,0.07227 c 1.97000282,0.554118 1.80095882,0.464893 2.52148432,0.621094 0.3348363,0.07259 0.679387,0.143302 1.0195313,0.205078 0.1890949,0.03434 0.3770231,0.06552 0.5605469,0.09375 0.2038527,0.03136 0.4031641,0.05891 0.59375,0.08008 0.2115577,0.0235 0.4141305,0.03984 0.6015625,0.04687 2.8741686,0.107825 5.6438461,-1.057786 8.4179691,-1.023437 2.005978,0.02484 3.967483,0.642784 6.009765,0.921875 l 0.396485,0.05273 v -0.607422 c 0,-0.99234 0.442855,-1.883745 1.138671,-2.486328 l 0.669922,-0.578125 -0.884765,-0.03516 c -0.166451,-0.0066 -0.323037,-0.01362 -0.462891,-0.02344 -2.28183,-0.160186 -4.548175,-0.997399 -6.910156,-1.023438 -2.845885,-0.03137 -5.5710717,1.153394 -8.310547,1.048828 -0.1680646,-0.0064 -0.3541386,-0.02224 -0.5546875,-0.04492 C 4.5306309,14.014767 4.3397073,13.98988 4.1425781,13.958984 3.9652194,13.931188 3.7823248,13.89943 3.5976562,13.865234 3.2650215,13.80364 2.9260069,13.733221 2.5957031,13.660156 2.3315393,13.601722 2.0740422,13.541329 1.8300781,13.482422 1.2311273,13.337801 1.2966231,13.373906 0.11132812,13.033203 Z M 24.636719,15.400391 c -1.603283,0 -2.894532,1.291246 -2.894531,2.894531 v 8.560547 c 0,1.603285 1.291248,2.894531 2.894531,2.894531 h 11.544922 c 1.603284,0 2.892578,-1.29158 2.892578,-2.894531 v -8.560547 c 0,-1.602951 -1.289294,-2.894531 -2.892578,-2.894531 z m -24.95312525,3.582031 -0.015625,3.810547 0.25585938,0.07227 c 1.96999897,0.554119 1.80096527,0.464894 2.52148437,0.621094 0.3348362,0.07259 0.6793869,0.143302 1.0195313,0.205078 0.1890948,0.03434 0.377023,0.06552 0.5605468,0.09375 0.2038528,0.03135 0.4031641,0.05891 0.59375,0.08008 0.2115579,0.0235 0.4141309,0.03984 0.6015625,0.04687 2.8586324,0.107242 5.6157949,-1.043142 8.3749999,-1.021484 l 0.214844,0.002 0.09766,-0.191406 c 0.01444,-0.02799 0.02525,-0.0496 0.03711,-0.07031 0.204126,-0.356336 0.555223,-0.612453 0.953126,-0.707031 0.357633,-0.085 0.751268,-0.02387 1.091796,0.1875 0.341855,0.212194 0.654372,0.561331 0.960938,0.81836 0.125928,0.10558 0.313662,0.259018 0.388672,0.320312 l 0.06445,0.05273 2.621094,0.564454 V 20.09375 l -0.304688,-0.04102 c -2.012941,-0.261151 -4.03773,-0.918395 -6.125,-0.941406 -2.845804,-0.03137 -5.5709876,1.151445 -8.3105468,1.046875 -0.168065,-0.0064 -0.354101,-0.02224 -0.5546874,-0.04492 -0.1803405,-0.02039 -0.3711739,-0.04528 -0.5683594,-0.07617 -0.1774095,-0.0278 -0.360189,-0.05955 -0.5449219,-0.09375 C 3.2844371,19.881765 2.945679,19.811347 2.6152344,19.738281 2.3509578,19.679846 2.0936884,19.619455 1.8496094,19.560547 1.2498616,19.4158 1.3134322,19.452182 0.12695312,19.111328 Z m -0.015625,6.099609 -0.015625,3.8125 0.25585938,0.07031 c 1.96825997,0.553944 1.80009367,0.467016 2.51953127,0.623047 0.3347003,0.07259 0.6794961,0.1433 1.0195312,0.205078 0.1890343,0.03434 0.3770696,0.06552 0.5605469,0.09375 0.203801,0.03136 0.4031933,0.05891 0.59375,0.08008 0.2115253,0.0235 0.4141303,0.03984 0.6015625,0.04687 2.8741717,0.107825 5.645802,-1.057785 8.419922,-1.023438 2.126746,0.02633 4.209516,0.71882 6.382812,0.966797 l 0.634766,0.07227 -0.28125,-0.574219 C 20.146384,29.020577 20.025391,28.532656 20.025391,28.015625 V 27.21875 l -2.134766,-0.457031 -0.0098,-0.002 c -1.00127,-0.159767 -1.628907,-0.527345 -1.628906,-0.527344 -0.3279,-0.188718 -0.734754,-0.432975 -1.095703,-0.712891 -0.0703,-0.05451 -0.135672,-0.104026 -0.201172,-0.15625 l -0.08008,-0.0625 -0.09961,-0.01172 c -0.393265,-0.04355 -0.792084,-0.07367 -1.195313,-0.07812 -2.845889,-0.03137 -5.5710713,1.153392 -8.3105468,1.048828 -0.1680415,-0.0064 -0.3541146,-0.02221 -0.5546874,-0.04492 -0.1803279,-0.02042 -0.3711822,-0.04718 -0.5683594,-0.07813 -0.1774019,-0.02784 -0.3601946,-0.05754 -0.5449219,-0.0918 C 3.2688216,25.983218 2.9300482,25.911092 2.5996094,25.837891 2.3353376,25.779347 2.0780599,25.719175 1.8339844,25.660156 1.2349726,25.515311 1.2991941,25.552296 0.11328125,25.210938 Z"
       inkscape:path-effect="#path-effect1116"
       inkscape:original-d="M 0.01343587,13.36921 0,16.449125 c 0,0 3.4438363,0.968646 5.2146688,1.035079 2.8218591,0.105862 5.5846432,-1.058154 8.4082722,-1.023193 2.04014,0.02526 4.030227,0.647568 6.052861,0.923974 v -0.207222 c 0,-1.097968 0.489499,-2.083072 1.259871,-2.75022 -0.166645,-0.0066 -0.329344,-0.01303 -0.474906,-0.02325 -2.315697,-0.162563 -4.567215,-0.997604 -6.888469,-1.023194 -2.795124,-0.03081 -5.5271613,1.155134 -8.3204222,1.048515 -1.7858306,-0.06817 -5.23843993,-1.0604 -5.23843993,-1.0604 z M 24.636739,15.749943 c -1.409424,0 -2.545064,1.135638 -2.545064,2.545064 v 8.560718 c 0,1.409427 1.13564,2.544548 2.545064,2.544548 h 11.545032 c 1.409426,0 2.542997,-1.135121 2.542997,-2.544548 v -8.560718 c 0,-1.409426 -1.133571,-2.545064 -2.542997,-2.545064 z M 0.03100586,19.447392 0.01963704,22.527307 c 0,0 3.44383606,0.968649 5.21466876,1.035079 2.8067026,0.105293 5.5554832,-1.043166 8.3633142,-1.021126 0.01454,-0.02819 0.02931,-0.05691 0.04496,-0.08423 0.253296,-0.442173 0.686273,-0.756497 1.175639,-0.872815 0.450654,-0.107112 0.939581,-0.02895 1.35754,0.230477 0.37325,0.231681 0.709744,0.604191 0.999939,0.847494 0.123988,0.103954 0.309519,0.254589 0.384989,0.316259 l 2.115117,0.45527 v -3.033407 c -2.034952,-0.264007 -4.032466,-0.916862 -6.083867,-0.939477 -2.795124,-0.03081 -5.5271612,1.153583 -8.3204221,1.046964 -1.7858307,-0.06816 -5.24050704,-1.0604 -5.24050704,-1.0604 z m -0.01550293,6.099369 -0.01136882,3.081982 c 0,0 3.44176899,0.96865 5.21260169,1.035079 2.821859,0.105863 5.5867112,-1.058153 8.4103392,-1.023193 2.162915,0.02678 4.268704,0.723729 6.417696,0.968933 -0.235986,-0.481411 -0.368969,-1.021521 -0.368969,-1.593701 v -0.513664 l -1.8495,-0.396875 c 0,0 -1.047703,-0.166827 -1.748214,-0.569991 -0.330783,-0.190377 -0.758363,-0.444915 -1.136881,-0.738456 -0.07003,-0.0543 -0.137625,-0.106766 -0.204639,-0.160197 -0.38546,-0.04269 -0.771923,-0.07167 -1.160652,-0.07596 -2.795128,-0.03081 -5.5266452,1.155132 -8.3199061,1.048515 -1.7858306,-0.06817 -5.24050697,-1.062468 -5.24050697,-1.062468 z" /></g></svg>
