<?xml version="1.0" encoding="UTF-8" standalone="no"?>
<!-- Created with Inkscape (http://www.inkscape.org/) -->

<svg
   width="48mm"
   height="48mm"
   viewBox="0 0 48 48"
   version="1.1"
   id="svg5"
   xml:space="preserve"
   inkscape:version="1.2.2 (732a01da63, 2022-12-09)"
   sodipodi:docname="nyan.svg"
   inkscape:export-filename="nyan - stencil 4.svg"
   inkscape:export-xdpi="96"
   inkscape:export-ydpi="96"
   xmlns:inkscape="http://www.inkscape.org/namespaces/inkscape"
   xmlns:sodipodi="http://sodipodi.sourceforge.net/DTD/sodipodi-0.dtd"
   xmlns="http://www.w3.org/2000/svg"
   xmlns:svg="http://www.w3.org/2000/svg"><sodipodi:namedview
     id="namedview7"
     pagecolor="#ffffff"
     bordercolor="#000000"
     borderopacity="0.25"
     inkscape:showpageshadow="2"
     inkscape:pageopacity="0.0"
     inkscape:pagecheckerboard="0"
     inkscape:deskcolor="#d1d1d1"
     inkscape:document-units="mm"
     showgrid="false"
     inkscape:zoom="7.319248"
     inkscape:cx="7.172868"
     inkscape:cy="85.93779"
     inkscape:window-width="3440"
     inkscape:window-height="1369"
     inkscape:window-x="2552"
     inkscape:window-y="-8"
     inkscape:window-maximized="1"
     inkscape:current-layer="layer13" /><defs
     id="defs2"><inkscape:path-effect
       effect="offset"
       id="path-effect1188"
       is_visible="true"
       lpeversion="1.2"
       linejoin_type="miter"
       unit="mm"
       offset="0.35"
       miter_limit="4"
       attempt_force_join="false"
       update_on_knot_move="true" /></defs><g
     inkscape:groupmode="layer"
     id="layer5"
     inkscape:label="Final Stencils"
     style="display:inline"><path
       id="path3580-4-6"
       style="color:#000000;display:inline;fill:#000000;stroke:none;stroke-linecap:round;stroke-linejoin:round;-inkscape-stroke:none"
       inkscape:label="Stencil 3"
       d="m 23.3125,13.191406 c -2.202391,0 -3.986328,1.783938 -3.986328,3.986328 V 28.015625 C 19.326172,30.218017 21.110343,32 23.3125,32 H 35.041016 L 34.4375,31.402344 c -0.06911,-0.06867 -0.650302,-0.645565 -0.974609,-0.972656 -0.353269,-0.356302 -0.696054,-0.718835 -1.046875,-1.066407 -0.329125,-0.326074 -0.809669,-0.461713 -1.044922,-1.015625 -0.30725,-0.723433 -0.273322,-1.66601 -0.205078,-2.552734 0.0026,-0.03382 0.04049,-0.737692 0.201172,-1.587891 0.0022,-0.01186 0.0085,-0.02366 0.01758,-0.0332 l 1.017578,-1.070312 -0.0293,-0.173828 c -0.02869,-0.165304 -0.08259,-0.441577 -0.123047,-0.972657 -0.05083,-0.667345 -0.07625,-1.37954 0.150391,-1.919922 0.120809,-0.288046 0.352149,-0.48367 0.605468,-0.697265 0.0643,-0.05422 0.144366,-0.138885 0.451172,-0.34375 0.01,-0.0068 0.02306,-0.01146 0.0332,-0.01172 l 1.121094,-0.01758 c 0.01937,-2.93e-4 0.03793,0.009 0.05078,0.02344 l 0.9375,1.046875 1.03125,1.048829 1.007813,0.990234 3.021484,-0.01758 0.695313,-0.673828 v -4.207032 c 0,-2.202155 -1.781985,-3.986328 -3.984375,-3.986328 z"
       inkscape:path-effect="#path-effect1188"
       inkscape:original-d="m 23.312272,13.540776 c -2.006999,0 -3.63647,1.629989 -3.63647,3.636987 v 10.838098 c 0,2.007 1.629471,3.634403 3.63647,3.634403 h 10.878923 c -0.0687,-0.06827 -0.650695,-0.64635 -0.976168,-0.974617 -0.355192,-0.358241 -0.696825,-0.719687 -1.044898,-1.064535 -0.256789,-0.254409 -0.84895,-0.485105 -1.121378,-1.126546 -0.330732,-0.778724 -0.301294,-1.823841 -0.232544,-2.717147 0.06875,-0.893303 0.207222,-1.624707 0.207222,-1.624707 a 0.415042,0.415042 0 0 1 0.107487,-0.209289 l 0.896586,-0.943095 c -0.02628,-0.15143 -0.08497,-0.452746 -0.127124,-1.00614 -0.0514,-0.674784 -0.08238,-1.461771 0.177767,-2.082044 0.155178,-0.369993 0.448037,-0.616417 0.70125,-0.829923 0.253211,-0.213507 0.48059,-0.365353 0.48059,-0.365353 a 0.415042,0.415042 0 0 1 0.224276,-0.07235 l 1.121379,-0.01757 a 0.415042,0.415042 0 0 1 0.316259,0.13901 l 0.933794,1.040763 1.021126,1.039213 0.904337,0.888835 2.736268,-0.01602 0.488342,-0.471805 V 17.17776 c 0,-2.006998 -1.627922,-3.636987 -3.63492,-3.636987 z" /></g></svg>
