<?xml version="1.0" encoding="UTF-8" standalone="no"?>
<!-- Created with Inkscape (http://www.inkscape.org/) -->

<svg
   width="48mm"
   height="48mm"
   viewBox="0 0 48 48"
   version="1.1"
   id="svg5"
   xml:space="preserve"
   inkscape:version="1.2.2 (732a01da63, 2022-12-09)"
   sodipodi:docname="nyan.svg"
   inkscape:export-filename="nyan - stencil 3.svg"
   inkscape:export-xdpi="96"
   inkscape:export-ydpi="96"
   xmlns:inkscape="http://www.inkscape.org/namespaces/inkscape"
   xmlns:sodipodi="http://sodipodi.sourceforge.net/DTD/sodipodi-0.dtd"
   xmlns="http://www.w3.org/2000/svg"
   xmlns:svg="http://www.w3.org/2000/svg"><sodipodi:namedview
     id="namedview7"
     pagecolor="#ffffff"
     bordercolor="#000000"
     borderopacity="0.25"
     inkscape:showpageshadow="2"
     inkscape:pageopacity="0.0"
     inkscape:pagecheckerboard="0"
     inkscape:deskcolor="#d1d1d1"
     inkscape:document-units="mm"
     showgrid="false"
     inkscape:zoom="7.319248"
     inkscape:cx="7.172868"
     inkscape:cy="85.93779"
     inkscape:window-width="3440"
     inkscape:window-height="1369"
     inkscape:window-x="2552"
     inkscape:window-y="-8"
     inkscape:window-maximized="1"
     inkscape:current-layer="layer13" /><defs
     id="defs2"><inkscape:path-effect
       effect="offset"
       id="path-effect1161"
       is_visible="true"
       lpeversion="1.2"
       linejoin_type="miter"
       unit="mm"
       offset="0.35"
       miter_limit="4"
       attempt_force_join="false"
       update_on_knot_move="true" /></defs><g
     inkscape:groupmode="layer"
     id="layer5"
     inkscape:label="Final Stencils"
     style="display:inline"><path
       id="path1684-6-7-3-5-0-1-8"
       style="display:inline;fill:#000000;stroke-width:0.329999;stroke-linecap:round;stroke-linejoin:round;stroke-dasharray:1.32, 1.32"
       inkscape:label="Stencil 2"
       d="m -0.34179688,15.953125 -0.015625,3.810547 0.25585938,0.07031 c 1.9682594,0.553944 1.8000925,0.467016 2.5195313,0.623047 0.3347002,0.07259 0.6794961,0.143301 1.0195312,0.205078 0.1890343,0.03434 0.3770695,0.06552 0.5605469,0.09375 0.2038011,0.03136 0.4031932,0.05891 0.59375,0.08008 0.2115254,0.0235 0.4141299,0.03984 0.6015625,0.04687 2.874094,0.107822 5.6457196,-1.055832 8.4199216,-1.021484 2.0081,0.02487 3.97115,0.643218 6.015625,0.921875 l 0.396485,0.05273 v -3.769532 l -0.304688,-0.03906 c -2.021453,-0.25893 -4.05429,-0.922204 -6.150391,-0.945313 -2.845806,-0.03137 -5.5709844,1.151444 -8.3105464,1.046875 -0.1680652,-0.0064 -0.3541009,-0.02224 -0.5546875,-0.04492 -0.1803405,-0.02039 -0.3711738,-0.04528 -0.5683593,-0.07617 -0.1774096,-0.0278 -0.360189,-0.05955 -0.5449219,-0.09375 C 3.2590464,16.852468 2.9202883,16.78205 2.5898438,16.708984 2.3255672,16.650549 2.0682978,16.590158 1.8242188,16.53125 1.2244722,16.386503 1.2880399,16.422885 0.1015625,16.082031 Z M 43.867188,18.25 c -0.200257,1.62e-4 -0.393964,0.07773 -0.53711,0.21875 l -1.066406,1.048828 -1.044922,1.025391 -0.845703,0.816406 -2.447266,0.01563 -0.798828,-0.785156 -1.011719,-1.027344 -0.0098,-0.01172 -0.921875,-1.027343 c -0.148408,-0.166692 -0.361929,-0.259216 -0.583985,-0.25586 l -1.123047,0.01758 c -0.147236,0.0036 -0.292969,0.04934 -0.412109,0.13086 -0.323243,0.215812 -0.422776,0.313675 -0.511719,0.388672 -0.253108,0.213417 -0.607327,0.510949 -0.796875,0.96289 -0.293651,0.700164 -0.257041,1.56192 -0.205078,2.244141 0.03626,0.476097 0.07784,0.690211 0.107422,0.859375 l -0.78125,0.820312 c -0.101887,0.106806 -0.16971,0.241139 -0.197265,0.386719 -0.166416,0.880549 -0.207025,1.585884 -0.212891,1.662109 -0.06926,0.899888 -0.09445,2.046845 0.259765,2.88086 0.309603,0.72897 1.012813,1.055538 1.197266,1.238281 0.345325,0.342125 0.685854,0.70232 1.042969,1.0625 0.34572,0.348688 -0.342186,-0.334319 1.035156,1.033203 0.143264,0.14264 0.336362,0.222739 0.539063,0.222656 h 9.289062 c 0.204645,8.5e-5 0.398968,-0.08116 0.542969,-0.226562 1.377693,-1.394541 0.689589,-0.697982 1.035156,-1.052734 0.342659,-0.35177 0.676535,-0.704681 1.011719,-1.048829 0.182907,-0.1878 0.870961,-0.530256 1.173828,-1.27539 0.337923,-0.831378 0.309339,-1.968895 0.238281,-2.863281 -0.0061,-0.07695 -0.04956,-0.782294 -0.21289,-1.650391 -0.02595,-0.13987 -0.08973,-0.26653 -0.183594,-0.371094 l -0.759766,-0.839844 c 0.0304,-0.167118 0.07605,-0.381375 0.115235,-0.855468 0.0558,-0.675177 0.09409,-1.528484 -0.195313,-2.22461 -0.192065,-0.461986 -0.556074,-0.76721 -0.818359,-0.988281 -0.09756,-0.08223 -0.186568,-0.173478 -0.525391,-0.402344 C 45.124313,18.292938 44.975206,18.24975 44.824219,18.25 Z m -44.16992238,3.787109 -0.0175781,3.810547 0.25585938,0.07227 c 1.96999792,0.554118 1.80096472,0.464893 2.52148432,0.621094 0.3348363,0.07259 0.6793869,0.143301 1.0195313,0.205078 0.1890949,0.03434 0.377023,0.06552 0.5605469,0.09375 0.2038528,0.03136 0.403164,0.05891 0.59375,0.08008 0.2115579,0.0235 0.4141305,0.03984 0.6015625,0.04687 2.8740938,0.10782 5.6456881,-1.055833 8.4199221,-1.021485 0.360623,0.0044 0.720241,0.03013 1.083984,0.06836 l 1.201172,0.126953 -0.947266,-0.75 c -0.295702,-0.233945 -0.543464,-0.451124 -0.759765,-0.738281 -0.166585,-0.221158 -0.213122,-0.346715 -0.410157,-0.802735 -0.162906,-0.377036 -0.0951,-0.804559 0.09961,-1.169921 l 0.271484,-0.507813 -0.576172,-0.0059 c -0.0094,-1.08e-4 -0.0059,-10e-7 -0.0059,0 C 10.763568,22.134647 8.03839,23.31746 5.2988281,23.212891 5.1307628,23.206476 4.9447272,23.190647 4.7441406,23.167969 4.5638001,23.14758 4.3729669,23.122692 4.1757812,23.091797 3.9983717,23.064 3.8155923,23.032242 3.6308594,22.998047 3.2981089,22.936452 2.9593508,22.866034 2.6289062,22.792969 2.3646297,22.734534 2.1073603,22.674142 1.8632812,22.615234 1.2635334,22.470487 1.3271034,22.506869 0.140625,22.166016 Z m -0.0136719,6.083985 -0.015625,3.810547 0.25585938,0.07227 C 1.8937938,32.558028 1.72484,32.468809 2.4453125,32.625 c 0.3348363,0.07259 0.6793864,0.143302 1.0195313,0.205078 0.1890951,0.03434 0.3770225,0.06552 0.5605468,0.09375 0.2038533,0.03135 0.4031633,0.05891 0.59375,0.08008 0.2115588,0.0235 0.4141336,0.03985 0.6015625,0.04687 2.8741714,0.107826 5.6438449,-1.057784 8.4179689,-1.023437 1.560768,0.01933 3.419883,0.49286 4.988281,0.845703 l 0.423828,0.0957 0.0059,-1.609375 c 1.02e-4,-0.01783 0.0087,-0.03436 0.02148,-0.04687 l 1.039063,-1.019531 c 0.01153,-0.01137 0.02769,-0.01909 0.04883,-0.01953 l 0.666015,-0.02148 -0.316406,-0.513672 c -0.06064,-0.09826 -0.116319,-0.200772 -0.167969,-0.308593 l -0.08594,-0.177735 -0.19336,-0.01953 C 17.937353,29.007504 15.804173,28.272394 13.595703,28.248047 10.749814,28.216673 8.0246358,29.40144 5.2851562,29.296875 5.1170908,29.29046 4.9310554,29.274631 4.7304688,29.251953 4.5501281,29.231564 4.359295,29.206677 4.1621094,29.175781 3.9846998,29.147984 3.8019204,29.116227 3.6171875,29.082031 3.284437,29.020436 2.945679,28.950019 2.6152344,28.876953 2.3509578,28.818518 2.0936884,28.758126 1.8496094,28.699219 1.2498573,28.554471 1.3134348,28.590853 0.12695312,28.25 Z"
       inkscape:path-effect="#path-effect1161"
       inkscape:original-d="m 0.00620117,16.418119 -0.01240234,3.080432 c 0,0 3.44331767,0.968649 5.21415197,1.035079 2.821862,0.105862 5.5861922,-1.057119 8.4098222,-1.022159 2.042249,0.02529 4.033234,0.649033 6.058029,0.925008 V 17.374133 C 17.631957,17.112335 15.62666,16.453749 13.566614,16.431038 10.771487,16.400228 8.0394551,17.585655 5.2461914,17.479036 3.460359,17.410877 0.00620117,16.418119 0.00620117,16.418119 Z M 43.86709,18.599382 a 0.415042,0.415042 0 0 0 -0.290938,0.119372 l -1.066602,1.049032 -1.046448,1.027327 -0.945678,0.913639 -2.736268,0.01602 -0.904337,-0.888835 -1.021126,-1.039213 -0.933794,-1.040763 a 0.415042,0.415042 0 0 0 -0.316259,-0.13901 l -1.121379,0.01757 a 0.415042,0.415042 0 0 0 -0.224276,0.07235 c 0,0 -0.227379,0.151846 -0.48059,0.365353 -0.253213,0.213506 -0.546072,0.45993 -0.70125,0.829923 -0.260145,0.620273 -0.229164,1.40726 -0.177767,2.082044 0.04215,0.553394 0.100844,0.85471 0.127124,1.00614 l -0.896586,0.943095 a 0.415042,0.415042 0 0 0 -0.107487,0.209289 c 0,0 -0.138474,0.731404 -0.207222,1.624707 -0.06875,0.893306 -0.09819,1.938423 0.232544,2.717147 0.272428,0.641441 0.864589,0.872137 1.121378,1.126546 0.348073,0.344848 0.689706,0.706294 1.044898,1.064535 0.344441,0.347398 1.033012,1.031462 1.033012,1.031462 a 0.415042,0.415042 0 0 0 0.293005,0.120922 h 9.288839 a 0.415042,0.415042 0 0 0 0.295072,-0.122989 c 0,0 0.688583,-0.696998 1.033012,-1.050582 0.34148,-0.350559 0.675452,-0.703663 1.011825,-1.049032 0.260676,-0.26765 0.838672,-0.520068 1.099674,-1.162203 0.315837,-0.77704 0.283445,-1.816897 0.212907,-2.704744 -0.07054,-0.887846 -0.207222,-1.613339 -0.207222,-1.613339 a 0.415042,0.415042 0 0 0 -0.09922,-0.201538 L 46.3088,22.96501 c 0.02663,-0.147017 0.08735,-0.449858 0.132809,-0.999939 0.05514,-0.667124 0.08836,-1.444331 -0.167949,-2.060857 -0.157706,-0.379341 -0.459159,-0.634645 -0.720886,-0.855245 -0.261727,-0.220598 -0.496094,-0.378788 -0.496094,-0.378788 a 0.415042,0.415042 0 0 0 -0.232544,-0.0708 z M 0.0449585,22.501986 0.03203939,25.581901 c 0,0 3.44331771,0.969166 5.21415201,1.035596 2.821862,0.105862 5.5861926,-1.057637 8.4098226,-1.022677 0.3742,0.0046 0.746488,0.03126 1.117761,0.07028 -0.303962,-0.24048 -0.579292,-0.478889 -0.822689,-0.802018 -0.197929,-0.26277 -0.258591,-0.424471 -0.453202,-0.874882 -0.214685,-0.496875 -0.119306,-1.037057 0.113172,-1.473295 -0.0021,-2.4e-5 -0.0041,2.3e-5 -0.0062,0 -2.795127,-0.03081 -5.5266416,1.154617 -8.3199053,1.047998 -1.7858324,-0.06816 -5.2399902,-1.060917 -5.2399902,-1.060917 z m -0.01291911,6.083349 -0.01291911,3.080432 c 0,0 3.44382832,0.968669 5.21466882,1.035079 2.8218618,0.105863 5.5856749,-1.057636 8.4093059,-1.022676 1.594293,0.01974 3.494978,0.500142 5.059639,0.852144 l 0.0041,-1.173055 a 0.415042,0.415042 0 0 1 0.125057,-0.294556 l 1.039214,-1.019576 a 0.415042,0.415042 0 0 1 0.283186,-0.119372 l 0.06253,-0.0015 C 20.148829,29.812076 20.086545,29.698034 20.030302,29.580623 17.872289,29.352855 15.762384,28.622182 13.591935,28.598254 10.796807,28.56744 8.0652933,29.75287 5.2720296,29.646252 3.4861972,29.578089 0.03203939,28.585335 0.03203939,28.585335 Z" /></g></svg>
